<?xml version="1.0" encoding="UTF-8"?>
<svg xmlns="http://www.w3.org/2000/svg" viewBox="0 0 500 500">
  <defs>
    <style>
      .cls-1 {
        fill: #e9f4fd;
      }

      .cls-2 {
        fill: #fff;
        opacity: .61;
      }

      .cls-3 {
        stroke: #80d7c2;
        stroke-miterlimit: 10;
        stroke-width: 3px;
      }

      .cls-3, .cls-4 {
        fill: none;
      }

      .cls-5 {
        fill: #d98bb6;
      }

      .cls-6 {
        fill: #d47aab;
      }
    </style>
  </defs>
  <g id="BACKGROUND">
    <rect class="cls-2" width="500" height="500"/>
  </g>
  <g id="OBJECTS">
    <g>
      <ellipse class="cls-6" cx="251.89" cy="264.06" rx="130" ry="119.5"/>
      <line class="cls-4" x1="307.89" y1="230.56" x2="323.89" y2="264.06"/>
      <g>
        <rect class="cls-1" x="170.5" y="241.56" width="159" height="30" rx="12" ry="12"/>
        <g>
          <path class="cls-5" d="m318,273.97c-.63,0-.41.4-.5.48,1.09-.14.46-.59.5-.48Z"/>
          <path class="cls-5" d="m326.78,269.31v.24c.27-.42.47-.88.69-1.32-.22.35-.42.75-.69,1.08Z"/>
          <path class="cls-5" d="m330.86,261.31c-.21.19-.34.48-.42.84-.11.35-.19.77-.26,1.23-.09.45-.22.91-.35,1.37-.17.44-.37.85-.6,1.18l-.28.15c.04.3.08.61.11.93.5-.88.94-1.96,1.2-3,.29-1.03.42-2.01.61-2.69Z"/>
          <path class="cls-5" d="m332.53,256.78c-.28.27-.24-.94-.09,1.01.03-.1.05-.13.07-.18,0-.18,0-.42.02-.83Z"/>
          <path class="cls-5" d="m332.52,257.61c.02.86.23-.56,0,0h0Z"/>
          <path class="cls-5" d="m332.36,253.65l.25,1.13c.16-.24.2-1.24.32-.87-.02-.15-.04-.27-.05-.38-.02-.13-.05-.24-.07-.32-.05-.17-.09-.24-.14-.24-.09,0-.18.31-.31.67Z"/>
          <path class="cls-5" d="m331.78,252.39l.14.7c.06-.12.08-.32-.14-.7Z"/>
          <path class="cls-5" d="m332.16,254.41l-.24-1.32c-.11.19-.33.25.1.65-.21-.1,0,.14.14.67Z"/>
          <path class="cls-5" d="m332.06,255.11c-.16.63-.25,1.45-.5.32.1,2.16.6,1.84.5-.32Z"/>
          <path class="cls-5" d="m330.19,260.78c-.1.29-.22.58-.33.86.04.27.08.54.09.81,0-.39.48-1.69.25-1.66Z"/>
          <path class="cls-5" d="m330.22,245.23c-.17.01-.09.63-.21.81.22.26.46.52.65.81-.12-.53-.61-1.42-.45-1.62Z"/>
          <path class="cls-5" d="m330.02,246.04c-.33-.4-.68-.76-1.06-1.1.4.53.62.86.77,1.02.15.16.24.16.29.08Z"/>
          <path class="cls-5" d="m330.98,252.23l.33,1.15.28,1.05c-.18-.76-.37-1.77-.68-2.64.02.15.05.29.07.44Z"/>
          <path class="cls-5" d="m326.03,240.94l.93.26c-.54-.19-1.07-.36-1.63-.47l.69.22Z"/>
          <path class="cls-5" d="m322.42,239.21c.73-.04-.72-.78.01-.71-1.1-.3-2.11-.25-2.97-.13.9,0,1.88.22,2.96.84Z"/>
          <path class="cls-5" d="m318.03,238.58c.44-.04.91-.17,1.42-.21-.48-.02-.96.08-1.42.21Z"/>
          <path class="cls-5" d="m327.31,243c-.03-.14,0-.49-.62-1.11.08.23.14.46.19.71.13.12.28.26.43.4Z"/>
          <path class="cls-5" d="m326.88,242.62v-.02c-.48-.43-.85-.68-1-.8.12.11.45.33,1,.83Z"/>
          <path class="cls-5" d="m327.42,243.1s-.07-.06-.11-.1c.01.07.03.1.11.1Z"/>
          <path class="cls-5" d="m330.47,248.51c-.53-.73-1.54-2.09-1.14-.47.51.41.32-.57,1.14.47Z"/>
          <path class="cls-5" d="m327.55,243.99c.32.4.65.79.92,1.23.07-.09.03-.42.38-.15-.4-.4-.86-.74-1.3-1.08Z"/>
          <path class="cls-5" d="m326.93,243.56c.22.13.43.27.63.43-.12-.15-.24-.3-.37-.43h-.25Z"/>
          <path class="cls-5" d="m320.76,239.34c-.36,0-.73,0-1.11-.03-.38-.03-.78-.08-1.2-.07.45.05.9.16,1.35.25.45.08.89.2,1.32.31.15-.1.61-.23-.36-.46Z"/>
          <path class="cls-5" d="m323.93,240.6s-.1-.03-.15-.05c.07.07.13.12.15.05Z"/>
          <polygon class="cls-5" points="311.32 239.19 311.43 239.27 311.46 239.19 311.32 239.19"/>
          <path class="cls-5" d="m321.24,239.92c.63.23,1.02.32,1.44.32-.49-.14-1-.31-1.57-.43-.07.05-.09.08.13.12Z"/>
          <path class="cls-5" d="m315.98,238.76c.3.09.63.17.99.23-.29-.14-.88-.35-.99-.23Z"/>
          <path class="cls-5" d="m323.62,240.35s.07.02.1.03c-.17-.18-.16-.13-.1-.03Z"/>
          <path class="cls-5" d="m323.62,240.35c-.34-.1-.64-.12-.94-.12.41.1.77.24,1.1.33-.06-.06-.12-.14-.16-.21Z"/>
          <path class="cls-5" d="m309.21,241.93c.1-.4,1.6-.76,2.89-.34,1.27-.3.44-1.6-.67-2.33-.04.17-.04.33-1.35.57.46.22,2.91.51,1.8.86-1.74.2-1.42-.14-2.27-.35.72.49-2.21.72-1.83,1.44l1.52-.26c.03.11-.52.29-.1.4Z"/>
          <path class="cls-5" d="m313.93,239.31l.54-.05c-.61-.07-1.05-.23-1.86-.54-.9.19-1.08.34-1.15.47l2.66.06-.18.06Z"/>
          <path class="cls-5" d="m316.89,239.25c-.42.43-1.72.61-.92,1.08.79-.02,1.07-.11,1.27-.21.19-.11.31-.24.86-.3-.76-.02-.98,0-1.07-.02-.08-.02.03-.06.17-.11.27-.1.63-.25-.29-.37.47-.08,1.02-.08,1.53-.07-.51-.08-1.01-.17-1.48-.24.02.01.04.02.06.03h.01s0,0,0,0c.11.05.15.09.02.06,0,0-.04,0-.05,0-.02.06-.06.11-.12.16-.74-.09-.12-.11.12-.16,0-.02.03-.04.03-.07h0s-2.56.23-2.56.23c.54.06,1.22.05,2.42,0Z"/>
          <path class="cls-5" d="m327.83,247.22c0-.09.02-.1.04-.12-.13-.12-.2-.15-.04.12Z"/>
          <path class="cls-5" d="m327.44,246.18c.15.13.43.13.71.7.18.54-.18.11-.28.21.29.25.96.98.51-.16l-.15-.13c-.2-.52-.48-1.09-.63-1.58-.2-.46-.3-.8-.21-.74-.07.51-.06.89.05,1.7Z"/>
          <path class="cls-5" d="m323.07,241.57c-.36-.15-.74-.25-1.12-.35-.37-.11-.75-.19-1.14-.25.35.21.68.44,1,.7l.02-.23c.6.26.85.32.98.3.14-.02.15-.14.27-.18Z"/>
          <polygon class="cls-5" points="311.08 238.97 311.36 238.52 310.13 239.16 311.08 238.97"/>
          <polygon class="cls-5" points="308.31 239.03 308.41 238.63 307.68 238.87 308.31 239.03"/>
          <path class="cls-5" d="m173.91,263.86c.1.13.21.27.33.39-.16-.18-.24-.31-.33-.39Z"/>
          <path class="cls-5" d="m172.95,260.39l-.2-.07c.11.16.2.22.2.07Z"/>
          <path class="cls-5" d="m240.32,239.07c-.91-.37-1.93-.94-1.82-.5l.28.43c.64-.08,1.13-.03,1.54.06Z"/>
          <path class="cls-5" d="m193.76,241.66c.09.04.18.09.27.13.22-.15.43-.29.62-.41-.27.09-.57.18-.88.28Z"/>
          <path class="cls-5" d="m193.12,243.46l-1.2-.28c.27.1.66.19,1.2.28Z"/>
          <path class="cls-5" d="m193.99,268.73l.73-.44c-1.14,0-.64.22-.73.44Z"/>
          <path class="cls-5" d="m279.96,239.19c-.79-.17-1.41-.24-1.96-.26.95.25,1.71.62,1.96.26Z"/>
          <path class="cls-5" d="m168.99,263.98c.23.4.38.55.46.5-.23-.4-.4-.63-.46-.5Z"/>
          <path class="cls-5" d="m275.72,238.93c.14.04.27.07.42.1.58-.07,1.15-.13,1.86-.1-.7-.18-1.5-.3-2.27,0Z"/>
          <path class="cls-5" d="m283.75,269.09c.07.02.14.03.2.05.02-.06-.07-.06-.2-.05Z"/>
          <path class="cls-5" d="m309.9,273.46c-.26.03-.68.03-1.07.03.19.03.52.03,1.07-.03Z"/>
          <path class="cls-5" d="m297.17,238.84c.59-.03.09-.05,0,0h0Z"/>
          <path class="cls-5" d="m300.03,240.55c-.12.05-.22.11-.23.21.05-.1.13-.17.23-.21Z"/>
          <path class="cls-5" d="m269.87,241.63s-.03,0-.05,0c.17.09.14.07.05,0Z"/>
          <path class="cls-5" d="m298.06,239.04c-.22-.05-.47-.1-.75-.13.12.03.35.08.75.13Z"/>
          <path class="cls-5" d="m297.94,238.83c.2.02.36.03.51.04.07-.07,0-.12-.51-.04Z"/>
          <path class="cls-5" d="m296.35,238.86c.34,0,.65.01.95.04-.12-.03-.16-.05-.13-.07-.17,0-.42.01-.82.02Z"/>
          <path class="cls-5" d="m235.65,270.25s.08.02.13.04c.59-.18.33-.15-.13-.04Z"/>
          <path class="cls-5" d="m225.04,243.58s.04-.01.07-.02c-.03,0-.06-.01-.09-.02l.02.04Z"/>
          <path class="cls-5" d="m222.93,243.9c.9-.54,1.41-.47,2.09-.36l-.7-1.25-1.39,1.61Z"/>
          <path class="cls-5" d="m180.61,268.87c-.35-.24-.69-.42-1-.68.74-.09,1.29-.08,1.57-.15.28-.05.26-.14-.16-.48-.18.68-1.25.48-2.23.06-.5-.2-.95-.48-1.36-.61-.38-.17-.74-.21-.98.03-.14-.24-.26-.49-.39-.73.15.16.23.12.38.28-.34-.72-.65-.75-1.12-.8-.23-.02-.48-.06-.73-.21-.26-.15-.54-.4-.75-.87-.3-.66-.27-1.2.06-.84-.34-.4-.62-.84-.9-1.3-.09-.45.15-.4.26.03-.14-.36-.24-.74-.36-1.12-.06-.39-.18-.77-.21-1.16h.04c-.11-.15-.26-.42-.41-.71-.13-.33-.25-.69-.32-.91.2-.74.14.37.31.18l-.33-1.6c.35-.65.69.68.64,1.78,1.36-1.5-.34-1.33.45-4.56l.17,1.51c.39-.49.51-1.03.59-1.66.02-.16.04-.32.06-.49.02-.18.04-.35.08-.46.08-.26.13-.53.3-.81-.08.06-.2.23-.34.45-.14.24-.32.42-.47.75-.31.59-.64.91-.81.04.04-.27.11-.47.11-.75,0-.28-.04-.6-.1-1,.24.03.36-.14.43-.42.12-.28.15-.69.29-1.13l.59.26c.14-.93-.16-.99-.17-1.65.6-.96,1.17-.85,1.65-.78.26-.32.32-.44.27-.48-.05-.05-.23-.02-.39.01-.31.07-.71.07-.05-.76,1.2-.9,1.79-1.73,3.33-2.85,1.08-.16-.03.43.4.47.22-.25.45-.56.71-.78.23-.05.2.12.18.21.73-.37-.12-.69,1.16-1.06.15-.4.83-.19,1.75.04.96.25,2.1.48,3.04.08.46.18-.22.39-.08.64,2.57-.53,2.2-.38,4.31-1.09l1.8.42c-1.32-.48.37-1.05,1.85-1.52-.47-.23-.87-.44-1.14-.53l2.36-.34c.28.1.05.33-.34.59.16-.05.31-.11.43-.15.84.24.41.61-.2.96-.28-.13-.57-.27-.85-.39-.58.39-1.13.82-1.01,1.19.15-.07.45-.14.77-.17-.15.11-.25.2-.18.26.08.07.33-.07.71-.24l.54.71.13-.28,3.09.45c2.21-.72,4.13-1.77,7.63-2.07-.87.52-.19.85-.23,1.47-.96-.66-2.71.28-4.53.15.95.07.74.36.5.47l3.24-.6c-.07.51.69.38,1.53.59-.64-1,2.42-.67,3.73-.97.08.34-.23.68-1.84.6,1.77.75,2.29-1.18,4.04-.54-.39,0-.6-.04-.76.13.92-.3,3.16-.06,2.63.23h-.39c2.61.13,7.94.01,8.33-.84.03.11-.34,1.03-.5,1.2l4.65-2.86c-.41.73,1.16,2.47-1,2.88.62.1,1.39.23,2.7-.03-.42-.1-1.06-1.06-.48-1.12,1.59.81,1.1.43,3.06,1.13-.63-.16.07-1.3,1.07-1.27-.16.17.08,1.13-.28,1.25l2.5-1.12c-.62.2-.11.95.45,1.27-.26-.22,2.16.02,2.82-.09l-1.06-.26c2.82.17,2.78-1.58,5.58-1.52-.34.23-.84,1.43.59,1.57.65-.58,2.89-2.77,5.36-3.21l.47.33,1.9-.38c-1.18.87-4.5,2.69-6.31,3.4,1.05.26.29.39,1.87.36.56.31-.86.47-1.33.49l3.68.2c-.16-.67,2.81-.67,2.67-1.23l-4,.7c-.16-.67,2.31-1.91,4.92-1.79.66.27-.5,1.2-.44,1.42.34-.23,2.47-.44,2.71-.28l-1.11.36c1.45.25,2.37-.89,4.11-.25.6.04,1.8.87,1.9.47-.98-.77-1.17-3.14-.52-3.72.21.05,3.16.73,3.85,1.11.99.6-1.49,1.43-.64,1.95.04-.18.58-.41.81-.48.63.16-.26.57,1.11.49.23-.68,2.79.06.65-.58,1.34-.19,1.43.14,3.01.11-.5-.44,1.42-1.5,2.76-1.69-.08.17.22.4.37.5,2.75.06,4.23.37,6.8.38.24.17,1.48.37.95.66.37-.12.71-.35,1.5-.37,1.53.59-1.77.09-.6.8.1-.4,2.05-.55,3.18-.79-.35-.61-2.61-.12-3.74.13,0-.84,1.96-1.73,4.65-2.12,2.13-.21.92.55,1.3.43,4.01.15,3.41-1.47,6.74-.86,1.32.54.06,1.07.35,1.46-1.74.2-2.67-.34-3.85-.32l1.45.25c-.55.18-1.71.31-2.34.16,1.11.48,6.77.09,9.86.54.55-.18,1.5-.37,1.05-.58l-.98.07c-.9-.43,1.84-.6.6-.8,1.31-.3,2.78-.78,4.63-.54l.35.61c-.04-.18-1.21-.36-1.73-.18.77-.27,2.83.83,3.68.03l-1.29-.42c1.32-.31,2.95-.96,4.58-.77-.74-.61-.38.07-1.54-.64,1.01.88-4.19-.04-2.57.89-1.19-.82-2.07-.35-3.63-1.05.05.2.55.39-.82.29-.06.06-.21.13-.3.18-.04,0-.06,0-.09-.02.03,0,.05.02.08.02-.06.03-.06.04.03,0,.33.09.59.2.7.31-.68.46-2.87.45-3.61.69-.82-.1.34-.23-.1-.45l-1.1.36c-.11-.45-2.17-.75-.25-1.01l-1.73-.02c-1.02-.25-2.42-.35-3.28-.16-.82-.1-2.06.5-1.35.15l-2.71.28-.03-.11c-2.68-.06-5.51.74-8.57-.07-.9.11-1.83.25-3.34.12l-.29-.39c-1.16.14-3.47-.39-3.97.02-1.25-1.05-5.61-.23-7.65-.41l-.08.51c-1.4-.03-2.74.12-4.48.32l.11.45c-1.5.37-3.85-.32-6.22-.27.16-.17.76-.13,1.19-.02-2.83-1.01-5.97.74-8.54,0-.64.16-1.1.11-1.55,0,.06,0,.11-.01.16-.02-.07,0-.16,0-.26,0-.28-.08-.57-.17-.89-.24.27.11.52.2.75.24-.49,0-1.24.06-1.98.18l-.31-.48c-.06,0-.11,0-.17.01-.72-.18-.58.23-.19.59-.37.08-.71.17-.97.29-.58-.78-1.92.26-2.72-.57-.49.4-3.69.3-4.08,1.16-.03-.11-.24-.16.15-.17-.82-.1-1.64-.19-2.37.05l-.35-.61-1.79.82c-1.08-.37-1.53-.59-.46-1.06-2.6.73-2.11.27-4.32.99l.11-.4c-.79.02-2.05.55-2.53.22-1.77-.75-8.75-.1-13.29-.8.88,1.17-2.11-.52-2.29.38-.26-.28-.9-.43-.16-.67-2.32.27-3.48-.44-5.08.32-.27-.28.5-.4.26-.57-.19.06-.74.24-.98.08-.24-.16.34-.23.71-.35-2.37.05-2.61.9-2.78,1.69-1.2-.38-1.8-.32-2.66.2-.42-.26-1.11-.53.36-.63-.83-.04-5.05-.38-5.14.26-.26-.16-1.16-.05-1.37.03-1.86-.04-2.02-.1-3.84-.04l.51.1c-.37.39-.72.41-1.24.41-.25-.01-.54-.03-.85-.05-.32,0-.67.05-1.06.13l.03-.08c-1.86.09-2.22.41-2.57.57-.18.09-.34.19-.69.34-.35.14-.87.31-1.74.68l.43.3c.12.52-.58.8-1.5,1.27-.91.46-2,1.22-2.45,2.21l.67-.44c-.1.28-.34.52-.64.76-.29.25-.66.49-1.05.75-.36.27-.75.56-1.08.85-.32.3-.57.61-.71.9-.18.23.01-.46.09-.85-.89,1.48-.69,1.68-.47,1.73.25.07.57.06.4,1.24-.4.39-.76-.75-1.08.93-.41,1.11,1.03,4.3.36,6.22.26-.42.52-.83.72.13.02.37-.03.8-.1,1.26-.04.53-.15,1.1-.14,1.67-.01,1.14.21,2.3.88,2.87,0,.23-.03.33-.09.36.15.29.36.67.62,1.06.23.41.53.82.84,1.2.61.77,1.3,1.38,1.72,1.49-.28.99,1.37,2.34,3.06,3.04,1.69.74,3.32.93,3.12,1.65,1.27.36,2.67.44,3.92.43l-.09.16c2.21.1,2.99-.27,3.77-.63.51.1.14.25.1.33,3.23.31,3.55.24,6.26-.52l.28.5c.73-.29,4.67.78,7.83.2-.03.06-.1.15-.35.22,3.56-.58,8.53,1.37,9.83-.43l2.35-.44c-3.04-.14.45-.78-.8-1.08,1.2-.11,3.09.54,1.62.64l-.23-.09c-.54.94,3.78.33,3.7.97,5.98-.05,11.82.47,17.42.51l-.65-.73,1.96.04c.51.17.69.57-.71.54.73.41,2.34-.35,2.38-.51,2.73.3-1.07.85-.23.87l1.14-.05-.26-.09c.92-.3,1-.62,2.68-.58,1.06.15.54.45.96.48,0,.05.14.08.64.02l2.46.06-.98-.58c1.09-.28,2.32.03,1.18-.62,1.67,1.01,9.19.36,10.21.68,1.53-.42,3.04-.41,4.91-.36-.46-.12-.74-.77.87-.69-.59,1.34,2.95.58,4.26,1.55-1.16-.64,4.59-.16,2.76-1.07,1.35.11.08.5,1.1.82,3.2-.52,7.06.34,11.02.16.06-.18-.6-.44.25-.71l2.09.88c.78-.09.72-1.02,2.15-.41-.2-.15-.5-.37.02-.43,7.76.86,15.85-.7,23.73.91-1.07-.34-.36-.37.46-.39-.53-.08.01-.43-.09-.67l3.3.66c.6-.66,3.54-.04,3.88-.68l-1.04.11c1.39-.75-1.94-1.66-1.74-2.62-1.56.85-4.1-1.26-6.65-.04-.56-.2.48-.31.18-.53-.65.41-1.43.5-2.88.31l.16-.1c-4.07.1-5.81-.3-10.38-.57l.34.47c-.98-.06-1.19-.21-1.65-.33-1.13.72,2.76.04,1.73.83-1.3-.96-6.92-.01-7.8-1.11-1.51,0,.44.55-1.07.54l-.4-.3-.38.38c-.99-.06-1.49-.43-1.53-.68.24.03.68-.07.94-.09-1.28-.35-3.62.12-4.06,0l1.45.18c-4.12.28-9.15-.11-13.13.49l.3.22c-3.04.41-2.44-.25-5.77-.05l.12-.05c-.67.22-1.56.34-2.47.31.84-.26-1.59-.51-.48-.8-3.3.44-1.63.35-3.81,1.18l-.5-.37c-.74.34-.8.51-2.47.61,1.37-.32-1.06-.56.47-.99-3.5-.81-5.19.82-6.8-.37-1.61,1.03,3.03.57,2.13.79.75.34-1.33.77-2.42.66-1.12-.02-1.9-1.31-4.71-1.29.28,0,.3-.07.58-.07-1.05-.26-2.06.35-3.35-.07-.72.62-1.68-.04-1.88.76l2.58-.18c-1.46.21-2.83,1.13-5.24.68.19-.16.9-.37,1.4-.49-.7-.23-1.36.15-2.09-.09.21-.79,3.13-.17,4.7-.78-.76-.33-2.96.57-2.18-.28-1.13,1.09-2.77-.14-4.67.7l.13-.47c-.3.07-.93.3-1.48.29l1-.62c-1.54.52-2.97-.46-4.45-.17,3.1-.01.69.57,2,.92-3.82.64-2.2-1.24-6.47-1.01.58-.07,2.17.28,1.27.5-.81-.1-1.89-.28-2.39-.53-2.83.1.43.49-.77.78-.96-.58-1.39.24-2.63.42v-.48c-3.24-.31-.86,1.01-3.77.63l1.23-.67-1.51.17.31-.55c-1.65.41-2.16.3-3.78.15.38.34-.21.88-1.64.89-.97-.29.55-.46-1.48-.39.46-.3.96-.68,1.84-.24.09-.16.45-.3.54-.46-1.05-.33-2.64-.07-3.37-.07.28.02.62.04.79.11l-2.94.67c-.46-.18-.1-.33.27-.47-.59.05-1.01.27-1.88.32.23-.39.17-.8,1.41-.98l-2.8.44c-.19-.17-1.44-.47-1.07-.61-1.55-.23-3.81.76-5.86.46-.11.08-.32.15-.76.2-1.93-.09-3.65-.57-5.94-.03l-1.3-.7c-1.79.16,1.76.89-1.23,1.15-2.12.22-.79-.6-1.53-.79-.59.18-1.11.43-1.8.52-.68.06-1.48-.05-2.11-.61.51.08.88.23,1.35.31Zm-7.92-15.02c.1.43.41,1.28.13,1.6-.55-.49-.29-.87-.13-1.6Zm24.33-11.26c-.32.16-.81.08-1.37-.1.4-.04.86-.02,1.37.1Zm93.72-3.36s-.03.01-.05.02c-.96-.19-.62-.11.05-.02Zm1.99.21c.2-.07.19-.13.1-.2-.14.12-.58.13-1.09.1.14.13.4.21.99.11Zm-50.8,34.05l-.39-.13c.87-.14.63-.01.39.13Z"/>
          <path class="cls-5" d="m193.2,243.25c-.12-.08-.15-.17-.18-.26-.17.08-.17.17.18.26Z"/>
          <path class="cls-5" d="m193.85,268.81h.07s.06-.05.07-.08l-.14.08Z"/>
          <path class="cls-5" d="m261.95,243.53c-.41-.07-.64-.16-.79-.25-.02.12.16.22.79.25Z"/>
          <path class="cls-5" d="m303.25,238.62l-1.27.13c.62-.02.84.08,1.15.16-.03-.11-.27-.28.13-.28Z"/>
          <path class="cls-5" d="m314.29,241.61c.19-.06.39,0,.58-.07l-.05-.22c-.79.01-1.35.2-.53.29Z"/>
          <path class="cls-5" d="m304.43,240.22c.1.41.9.27,1.79.19-.05,0-.1,0-.16,0,.26-.57-.69-.38-1.63-.19Z"/>
          <path class="cls-5" d="m306.42,240.4c.27-.02.56-.03.82-.01.1-.23-.33-.05-.82.01Z"/>
          <path class="cls-5" d="m295.24,239.17c.42.1.27-.52.5-.35.47-.52-2.82.62-.5.35Z"/>
          <polygon class="cls-5" points="305.15 241.56 304.83 241.06 304.33 241.46 305.15 241.56"/>
          <path class="cls-5" d="m298.11,241.19l1.42.14c-.02-.08.16-.13.38-.17-.88-.02-1.84-.12-1.81.03Z"/>
          <path class="cls-5" d="m299.92,241.16c.46,0,.89,0,1.15-.08-.25,0-.78.02-1.15.08Z"/>
          <polygon class="cls-5" points="303.2 241.71 302.78 241.61 301.78 241.57 303.2 241.71"/>
          <path class="cls-5" d="m282.8,241.1l-1.55.14c-.16.17.27.28.84.21.37-.12.95-.19.71-.35Z"/>
          <path class="cls-5" d="m287.5,242.47c-.42-.1-.45-.22-.69-.38l-.05.62.73-.24Z"/>
          <path class="cls-5" d="m282.97,242.61c-.15.17-2.26.49-.29.46.16-.17,1.71-.31.29-.46Z"/>
          <polygon class="cls-5" points="259.55 241.83 259.95 241.82 259.89 240.8 259.55 241.83"/>
          <path class="cls-5" d="m238.91,244.26c1.84.24.44-.63,2.1-.32.43-.24-1.36-.25-.92-.46-1.11.25-1.7.11-1.18.78Z"/>
          <path class="cls-5" d="m240.09,243.48c.18-.04.37-.09.57-.15-.32.06-.47.11-.57.15Z"/>
          <polygon class="cls-5" points="314.24 274.01 315.42 274.22 314.66 273.88 314.24 274.01"/>
          <path class="cls-5" d="m316.51,273.26l.28.65.71-.59c-.27.03-.79.08-.99-.06Z"/>
          <path class="cls-5" d="m174.27,251.47l-.14-.1c-.18.09-.29.27-.36.68.14-.21.33-.39.5-.57Z"/>
          <path class="cls-5" d="m175.03,264.54l-.09-.19c-.1.22-.2.44-.27.66l.36-.47Z"/>
          <path class="cls-5" d="m184.21,267.8c-.55-.03-1.21.11-1.74.08,1.18-.1,1.89.65,1.74-.08Z"/>
        </g>
      </g>
      <g>
        <rect class="cls-1" x="283.4" y="196.4" width="30" height="81.8" rx="12" ry="12" transform="translate(-82.39 256.06) rotate(-41.31)"/>
        <g>
          <path class="cls-5" d="m304.58,270.72c-.22-.28-.45.09-.54.1.5.39.61-.18.54-.1Z"/>
          <polygon class="cls-5" points="309.77 273.29 309.6 273.41 310.52 273.34 309.77 273.29"/>
          <path class="cls-5" d="m314.8,274.44c-.44-.69-1.87-.03-2.74-.51l-.11-.19c-.18.16-.36.29-.55.44,1.14.24,2.63.06,3.4.26Z"/>
          <path class="cls-5" d="m317.81,275.77c-.24-.24.61-.34-.72.03.07.03.09.04.14.05.12-.02.29-.05.58-.08Z"/>
          <path class="cls-5" d="m317.23,275.85c-.6.1.43.18,0,0h0Z"/>
          <path class="cls-5" d="m319.92,275.08l-.7.46c.2.11.92-.05.69.14.76-.4.52-.51,0-.59Z"/>
          <path class="cls-5" d="m320.44,274.32l-.34.24c.09.04.2.02.34-.24Z"/>
          <path class="cls-5" d="m319.36,275.03c.26-.15.51-.29.75-.47-.15-.07-.22-.28-.34.21,0-.22-.09.02-.4.26Z"/>
          <path class="cls-5" d="m318.86,275.06c-.46-.03-1.01-.03-.33-.43-1.39.36-1.12.86.33.43Z"/>
          <path class="cls-5" d="m315.07,273.71l-.5-.22c-.15.08-.3.14-.45.21.22-.07.98.23.95.01Z"/>
          <path class="cls-5" d="m324.5,273.04c-.05-.15-.46-.15-.62-.28-.11.17-.25.32-.38.47.32-.06.82-.35.99-.2Z"/>
          <path class="cls-5" d="m323.88,272.77l.51-.74c-.61.45-.65.63-.51.74Z"/>
          <path class="cls-5" d="m320.27,273.54c-.34.33-.7.67-1.09.95.48-.3.91-.7,1.32-1.05l-.23.1Z"/>
          <polygon class="cls-5" points="326.73 271.17 326.66 271.7 326.85 270.83 326.73 271.17"/>
          <path class="cls-5" d="m328.04,269.94c-.03.42.63.1.51.44.33-.36.48-.82.61-1.24-.22.36-.56.61-1.13.8Z"/>
          <path class="cls-5" d="m329.43,268.48c-.1.18-.18.41-.26.66.11-.19.21-.4.26-.66Z"/>
          <path class="cls-5" d="m325.41,271.26c.1.03.34.14.71-.04l-.49-.14c-.07.05-.14.12-.21.18Z"/>
          <path class="cls-5" d="m325.61,271.08h.02c.24-.19.4-.32.47-.38-.06.05-.21.16-.48.38Z"/>
          <path class="cls-5" d="m325.36,271.31s.03-.03.05-.05c-.05-.01-.07-.01-.05.05Z"/>
          <path class="cls-5" d="m322.35,272.94c.3-.47.95-1.2-.03-1-.12.43.45.31.03,1Z"/>
          <path class="cls-5" d="m324.74,271.13c-.21.14-.41.28-.67.44.08.08.32.1.2.34.2-.28.34-.54.47-.79Z"/>
          <polygon class="cls-5" points="324.93 270.79 324.74 271.13 324.98 270.98 324.93 270.79"/>
          <path class="cls-5" d="m328.19,269.03c.12-.35.38-.6.66-.89-.38.22-.74.48-1.06.76.04.14.06.44.4.13Z"/>
          <path class="cls-5" d="m326.91,270s.03-.05.04-.07c-.06,0-.09.02-.04.07Z"/>
          <polygon class="cls-5" points="331.9 264.65 331.79 264.68 331.85 264.73 331.9 264.65"/>
          <path class="cls-5" d="m327.69,268.89c-.3.15-.37.36-.43.58.15-.19.33-.38.53-.57-.02-.06-.04-.1-.11-.01Z"/>
          <path class="cls-5" d="m330.24,267.43c-.21.08-.43.19-.66.31.23-.04.68-.18.66-.31Z"/>
          <path class="cls-5" d="m327.11,269.95l-.02.05c.14,0,.1-.03.02-.05Z"/>
          <path class="cls-5" d="m327.11,269.95c.08-.16.11-.32.15-.48-.13.16-.23.31-.31.46.05,0,.11,0,.16.02Z"/>
          <path class="cls-5" d="m330.14,262.19c.32.2.28,1.2-.53,1.56-.16.76,1.13,1.18,2.18.93-.14-.12-.24-.19-.04-1.06-.3.2-1.41,1.3-1.32.53.41-.98.56-.67,1.01-1.03-.33.08-.31-.3-.35-.71-.05-.42-.13-.84-.51-.88-.04.29-.05.6-.12.89-.11-.04-.12-.39-.33-.23Z"/>
          <path class="cls-5" d="m330.77,266.02l-.2.31c.31-.28.66-.38,1.22-.68.2-.63.14-.81.05-.92-.35.49-.69.99-1.11,1.42l.03-.13Z"/>
          <path class="cls-5" d="m329.44,267.51c-.08-.52.37-1.22-.32-1.2-.68.7-.27.78-.55,1.27,1.08-1.14-.2.53.83-.1-.21.31-.37.48-.54.65.25-.14.49-.27.73-.4-.02,0-.03,0-.05,0h0s0,0,0,0c-.09.01-.13,0-.05-.03,0,0,.01-.02.02-.03-.03-.05-.04-.11-.05-.17.42-.28.13.03.05.17.01.02.01.04.03.06h0c.36-.47.75-.91,1.04-1.42-.27.25-.58.59-1.13,1.18Z"/>
          <path class="cls-5" d="m322.46,270.72c.06,0,.08.03.1.05.04-.1.05-.15-.1-.05Z"/>
          <path class="cls-5" d="m323.1,270.55c-.05.11-.01.31-.32.5-.32.09-.12-.17-.22-.27-.09.22-.43.7.25.46l.05-.11c.29-.13.67-.22.99-.27.3-.04.51-.04.5.02-.38-.18-.68-.28-1.25-.32Z"/>
          <path class="cls-5" d="m326.23,268.95l.77-.96-.71.13.17.15c-.57.39-.28.5-.23.68Z"/>
          <path class="cls-5" d="m332.18,264.63l.28.4c-.01-.35-.08-.72-.13-1.07l-.15.66Z"/>
          <polygon class="cls-5" points="333 262.9 333.33 263.13 333.31 262.57 333 262.9"/>
          <path class="cls-5" d="m276.22,205.63l-.18.24c.09-.1.14-.18.18-.24Z"/>
          <path class="cls-5" d="m278.05,204.7l-.02-.2c-.05.14-.06.22.02.2Z"/>
          <path class="cls-5" d="m314.14,228.71c-.06-.63-.02-1.45-.31-1.1l-.22.41c.3.22.44.46.53.7Z"/>
          <path class="cls-5" d="m294.73,210.56c0,.06,0,.13,0,.2.19,0,.38,0,.54-.01-.17-.06-.35-.12-.54-.19Z"/>
          <path class="cls-5" d="m293.14,211.47l-.24-.7c.03.18.1.41.24.7Z"/>
          <path class="cls-5" d="m268.36,214.79l.33.42c.14-.45-.13-.32-.33-.42Z"/>
          <path class="cls-5" d="m328.91,245.69c-.17-.45-.35-.76-.54-1.01.17.57.17,1.14.54,1.01Z"/>
          <path class="cls-5" d="m274.68,201.17c-.19.18-.23.33-.18.41.18-.21.28-.33.18-.41Z"/>
          <path class="cls-5" d="m327.52,243.71c.02.09.05.16.08.24.27.2.53.41.77.72-.12-.42-.34-.84-.85-.97Z"/>
          <path class="cls-5" d="m295.41,252.88s.03.08.04.12c.05-.03.02-.07-.04-.12Z"/>
          <path class="cls-5" d="m301.93,266.92c-.12-.09-.28-.27-.43-.44.05.1.17.24.43.44Z"/>
          <path class="cls-5" d="m334.34,255.41c.06.4.05.06,0,0h0Z"/>
          <path class="cls-5" d="m332.71,257.35c-.05-.08-.11-.14-.21-.15.1.03.17.08.21.15Z"/>
          <path class="cls-5" d="m323.3,243l-.02-.02c0,.13,0,.11.02.02Z"/>
          <path class="cls-5" d="m334.2,256.04c.04-.15.07-.33.09-.53-.03.09-.06.25-.09.53Z"/>
          <path class="cls-5" d="m334.4,255.94c0,.14-.01.25-.02.36.08.05.12,0,.02-.36Z"/>
          <path class="cls-5" d="m334.25,254.85c.05.23.05.45.04.66.02-.08.04-.12.06-.1-.02-.12-.04-.29-.1-.56Z"/>
          <path class="cls-5" d="m276.51,233.13s.01.05.02.08c.36.13.24.04-.02-.08Z"/>
          <path class="cls-5" d="m305.02,225.17s.03,0,.04.02c0-.02-.01-.03-.02-.05l-.02.03Z"/>
          <path class="cls-5" d="m303.99,224.48c.74.03.88.29,1.05.65l.68-1.12-1.73.47Z"/>
          <path class="cls-5" d="m271.85,209.51l.89-.26c-.34,1.15-1.04,1.47-.08,1.36-.81-1.1,2.36-2.26,1.56-3.36l.6-.15c-.13.1-.09.17-.22.27,1.23-.22-.01-1.32,1.03-1.89.39-.16.74-.12.6.15.19-.24.36-.52.57-.74.25-.09.3.15.06.23.38-.23.75-.48,1.17-.66v.04c.1-.27.42-.74.61-.92.4.09-.13.19,0,.32.22-.17.44-.36.67-.52.2.15.15.33,0,.48-.15.17-.4.32-.66.36.53.56.62.44.83.22.2-.17.53-.52,1.29-.17-.22.07-.44.14-.64.25.27.33.5.44.77.51.26.05.56.1.9.35-.07-.12-.42-.46-.68-.74-.26-.29-.45-.6-.06-.8.23.07.52.15.97-.13-.01.47.4.39.92.42l-.12.63c.55-.11.57-.41.96-.63.61.2.58.75.58,1.17.87.39-.39-.97.76-.7.34.28.67.4,1.03.52.38.09.8.17,1.34.32.37.52-.32.25-.25.52.24-.04.47-.05.72-.07.09.09-.04.19-.11.23.47.15.46-.49,1.11-.09.32-.17.41.27.58.82.18.57.43,1.21,1.08,1.35.04.32-.38.16-.51.39,1.36.75,1.11.69,2.43,1.12l.36,1.04c-.13-.88.92-.54,1.83-.21,0-.35,0-.66-.03-.84l1.14.78c.03.19-.23.23-.57.25.1.03.2.06.28.08.14.52-.3.57-.8.55l-.02-.62c-.51,0-1.04.06-1.27.36.11.02.27.1.42.22-.14,0-.24.03-.27.1-.02.08.18.09.45.15l-.33.7.26-.13.82,1.61c1.37.47,2.88.59,4.42,1.89-.72-.03-.71.48-1.19.87.13-.84-1.23-.97-1.81-1.84.3.45,0,.56-.16.52l1.66.99c-.41.3-.03.54.13,1.04.51-.93,1.41.59,2.13.95-.22.26-.6.35-1.14-.39.1,1.26,1.74.2,1.91,1.37-.15-.16-.19-.29-.38-.24.57.19,1.23,1.31.81,1.27l-.15-.16c.89,1.19,2.97,3.39,3.75,2.99-.07.08-.9.53-1.09.58l3.89.1c-.7.31-1.42,2.13-2.54,1.48.15.33.35.74,1.04,1.13-.08-.25.4-1.15.66-.94-.02,1.21.09.76.3,2.05-.12-.37,1-.83,1.35-.38-.19.05-.82.78-1.04.7l1.78.32c-.39-.13-.76.58-.79,1.03.07-.26.79.93,1.13,1.14l-.2-.62c.93,1.32,2.23.14,3.24,1.38-.3,0-1.39.59-.96,1.29.68-.1,3.16-.6,4.42.16l-.07.42.99.56c-1.09.07-3.71-.14-4.92-.45.2.62-.18.38.43,1.04-.02.44-.67-.06-.86-.24l1.23,1.7c.44-.51,1.56.75,1.93.32l-2.02-1.24c.44-.51,2.3-.27,3.19.92.05.46-1.08.58-1.23.75.3,0,1.26.76,1.23.97l-.68-.23c.35.79,1.56.42,1.73,1.59.19.29.02,1.34.36,1.12.21-.93,1.92-2.57,2.6-2.68.04.12.63,1.83.61,2.38-.08.82-1.63.31-1.71,1.01.15-.11.53-.02.67.03.12.37-.53.26.05.79.6-.35,1,1.23.68-.1.65.44.43.7,1.04,1.35.14-.51,1.66-.39,2.31.06-.16.08-.22.36-.24.49.99,1.22,1.31,2.05,2.27,3.15-.04.21.28.87-.14.84.23.08.53.07.84.4.13,1.04-.73-.69-.83.27.33-.22,1.18.51,1.79.83.33-.55-.89-1.19-1.5-1.51.63-.56,2.03-.3,3.33.58.96.77-.06.75.17.83.7.95,1.31,1.17,1.82,1.42.54.23.98.53,1.18,1.63-.19.99-.97.45-1.26.78-.59-.82-.37-1.55-.79-2.13l.24.85c-.33-.19-.79-.67-.87-1.05-.02.4.51,1.19.95,2.19.41,1,.77,2.2.65,3.08.25.26.46.78.66.51-.03-.19-.09-.37-.15-.55.17-.29.36-.05.53.18.16.23.26.45.33.06.18.38.42.8.57,1.27.11.48.2,1.02,0,1.59l-.63.15c.19,0,.45-.71.25-1.04.14.24-.09.67-.29,1.09-.18.42-.32.82,0,1.15.19-.23.4-.47.56-.72.21.85.57,2.09.02,3.08.73-.28.01-.25.93-.81-.53.21-.28-.47-.16-1.12.16-.65.21-1.24-.31-.78.91-.68.53-1.31,1.22-2.39-.21.04-.37.39-.3-.57-.06-.04-.14-.14-.19-.2,0-.03,0-.04.01-.06l-.02.05s-.04-.04,0,.02c-.07.23-.16.41-.27.49-.24-.22-.39-.68-.52-1.14-.13-.46-.29-.91-.44-1.12,0-.54.27.17.43-.16-.15-.22-.34-.42-.52-.62.42-.16.32-1.61.93-.42-.1-.39-.19-.77-.34-1.15.01-.75-.34-1.71-.79-2.15-.2-.56-1.18-.95-.61-.73-.4-.49-.87-.91-1.32-1.33l.08-.09c-1.01-1.27-2.64-1.88-3.18-3.74-.42-.31-.88-.61-1.35-1.34l.18-.38c-.53-.4-1.01-1.74-1.5-1.68.32-1.22-1.93-2.54-2.56-3.53l-.41.3c-.5-.62-1.12-1.09-1.92-1.7l-.3.34c-.84-.4-1.2-1.85-2.13-2.83.19-.04.38.24.46.49-.3-1.88-2.79-2.06-3.2-3.64-.36-.16-.49-.4-.58-.66.02.02.05.04.08.05-.02-.03-.06-.07-.09-.12-.05-.17-.09-.35-.15-.54.02.19.05.35.1.48-.19-.2-.51-.49-.87-.73l.24-.45s-.05-.04-.07-.06c-.14-.42-.39-.1-.52.31-.2-.11-.4-.19-.58-.22.36-.76-.92-.65-.59-1.54-.49.06-1.61-1.37-2.4-.98.07-.08.03-.21.19-.05-.23-.41-.47-.83-.92-.98l.33-.55-1.29-.22c-.13-.71-.13-1.04.63-.9-1.52-.63-1-.72-2.36-1.19l.34-.22c-.31-.33-1.18-.52-1.11-.94-.1-1.25-3.2-3.8-4.38-6.2-.55,1.15-.4-1.24-1.15-.73.11-.29-.01-.67.44-.51-1.07-.81-.98-1.77-2.15-1.95.11-.3.49-.05.52-.26-.11-.04-.46-.16-.42-.37.03-.21.3,0,.53.07-.92-.98-1.65-.52-2.31-.07-.17-.76-.43-.98-1.15-1.01.04-.35-.02-.83.6-.26-.28-.38-1.61-2.41-2.12-2.02.02-.22-.4-.52-.54-.57-.67-.82-.69-.92-1.41-1.66l.11.28c-.83.21-.73-.54-1.43-1.13l.07-.04c-.61-.88-.84-1-1.06-1.07-.23-.07-.4-.18-1.14-.99l-.14.47c-.35.4-.64.06-1.04-.41-.42-.43-.97-1.02-1.62-.99l.32.39c-.36.08-.67-.41-1.03-.91-.36-.49-.76-1.08-1.12-1.18-.14-.1.27-.12.5-.13-1.81-.86-.34.57-1.71.57-.24-.34.39-.85-.57-.94-.24-.15-.95.12-1.71.43-.38.13-.77.32-1.16.42-.39.09-.76.14-1.11.08.34.18.65.36.11.72-.45.15-1.12.13-1.78.23-.66.09-1.26.37-1.45.91-.14,0-.21-.03-.25-.08-.25.3-.73.66-1.1,1.11-.36.43-.69.87-.66,1.16-1.54-.85-2.45,3.22-3.45,2.07l-1.43,1.37-.06-.16c-1.15.93-1.18,1.61-1.21,2.2-.29.18-.25-.08-.3-.15-.74.74-1.12,1.22-1.3,1.73-.21.5-.23,1.05-.19,1.97h-.53c.09.27-.4.89-.72,1.81-.38.9-.59,2.1-.3,3.14-.06-.02-.15-.06-.22-.23.29,1.17.1,2.58.28,3.85.14,1.26.59,2.3,1.59,2.26.35.39.73.75,1.13,1.07-.89-1.65.81-.18.66-.98.23.26.34.71.37,1.01.03.3-.08.46-.39.14v-.17c-.49.13-.22.66.15,1.18.36.55.74.94.49,1.16,2.28,2.52,4.07,5.35,6.15,7.77l.31-.76.7.86c.06.33-.17.67-.67.06-.04.59,1.14.77,1.27.68.8,1.36-1.04.11-.74.48l.47.45-.03-.17c.57.2.84.02,1.44.76.29.55-.13.53,0,.73-.04.03,0,.11.22.29l.88,1.09.06-.8c.62.28.85,1.01.91.09-.13,1.38,3.17,4.16,3.32,4.8.89.37,1.45,1.02,2.11,1.85-.08-.28.3-.82.84-.08-1.23.63.67,1.64.43,2.84.04-.92,1.84,1.85,1.83.47.42.65-.35.37-.2,1.01,1.59,1.02,2.39,3.23,4.01,4.81.16-.09.11-.55.62-.36l.12,1.47c.36.28,1.03-.36,1.11.65.04-.18.09-.46.33-.27,2.26,3.87,6.47,6.3,8.21,10.72-.14-.68.15-.4.46-.06-.14-.28.33-.28.47-.48l.74,1.84c.72-.18,1.36,1.48,1.96,1.21l-.48-.37c1.08.1.52-1.92,1.31-2.47-1.22-.1-.59-2.58-2.46-2.86-.06-.37.41,0,.47-.27-.55,0-.91-.28-1.31-1.02h.14c-1.6-1.67-1.95-2.68-3.46-4.8l-.23.46c-.32-.46-.29-.65-.37-.92-.96,0,1,1.2.02,1.29.24-1.19-2.58-2.96-2.09-4.06-.56-.65-.25.55-.81-.1l.07-.37-.43.09c-.32-.46-.23-.92-.06-1.1.07.12.31.24.42.34-.22-.78-1.45-1.47-1.53-1.73l.41.74c-1.75-1.57-3.35-3.98-5.29-5.28l-.05.28c-1.45-1.02-.73-1.2-2.12-2.5l.09.02c-.42-.14-.84-.44-1.16-.85.51.19-.21-1.01.42-.73-1.57-1.11-.87-.47-2.31-.85l.09-.46c-.53-.09-.69,0-1.38-.65.75.37.03-.83.92-.45-.7-2.03-2.56-1.68-2.27-3.14-1.37,0,.71,1.67.2,1.43.03.54-1.07-.06-1.41-.6-.4-.49.27-1.68-.79-2.86.1.12.17.08.27.2-.2-.62-1.04-.65-1.2-1.48-.74.1-.6-.74-1.27-.3l1.1.98c-.7-.49-1.91-.46-2.48-1.78.19-.03.62.14.89.27-.09-.45-.62-.48-.72-.95.67-.43,1.3,1.22,2.35,1.49-.03-.54-1.54-.89-.6-1.12-1.24.24-.93-1.27-2.27-1.53l.4-.26c-.17-.08-.57-.2-.77-.44l.84.02c-.97-.31-.77-1.57-1.54-2.01,1.17,1.31-.17.67.06,1.46-1.91-1.21.11-1.76-1.66-3.43.27.2.6,1.11.1.87-.23-.41-.5-.99-.5-1.37-1.14-1.14-.2.51-.88.19.07-.79-.7-.44-1.3-.85l.36-.32c-.96-1.57-1.12.27-1.76-1.12.31.03.61.04.89.05l-.58-.45.54-.21c-.74-.38-.82-.65-1-1.38-.21.3-.87.32-1.13-.35.1-.55.51.08.12-.81.34.13.8.19.52.73.16-.02.35.08.51.05.07-.28-.01-.56-.14-.8-.12-.24-.23-.48-.28-.63.02.12.03.28-.01.37l-.5-.56c-.15-.2-.3-.4-.45-.62.14-.24.32-.09.49.05-.1-.26-.36-.41-.42-.83.41.07.78.02,1.04.52-.21-.37-.37-.77-.53-1.18.17-.09.48-.62.62-.46.1-.32,0-.72-.15-1.18-.08-.45-.17-.98.13-1.36-.06-.07-.1-.18-.1-.39.43-.79,1.11-1.21,1.27-2.32.29-.03.61-.02.9,0,.18-.33-.1-.35-.37-.4-.26-.06-.5-.15-.15-.78.55-.85.69.17,1.06.08,0-.27.17-.76.42-1.19.25-.43.63-.81,1.23-.96-.19.34-.47.45-.69.72Zm9.17-5.67c-.2.12-.55.45-.72.19.16-.57.38-.32.72-.19Zm14.24,8.72c-.24-.03-.36-.29-.44-.65.18.15.34.35.44.65Zm37.58,38.69s-.02-.01-.03-.02c-.12-.66-.08-.43.03.02Zm.29,1.32c.1.11.16.08.21,0-.14-.06-.26-.33-.35-.66-.08.14-.1.32.14.66Zm-56.7-14.63l-.05-.25c.43.28.25.26.05.25Z"/>
          <path class="cls-5" d="m293.33,211.37c.02-.11.07-.18.13-.25-.12-.02-.2.04-.13.25Z"/>
          <path class="cls-5" d="m268.3,214.71v.03s.03.04.06.05l-.06-.08Z"/>
          <path class="cls-5" d="m318.9,240.88c-.1-.22-.12-.38-.11-.5-.1.07-.1.21.11.5Z"/>
          <path class="cls-5" d="m334.42,259.66c.03-.3,0-.6,0-.9-.03.43-.14.57-.26.77.11,0,.31-.14.26.14Z"/>
          <path class="cls-5" d="m328.86,264.72c-.02.12-.14.18-.16.29l.19.13c.29-.36.35-.72-.03-.42Z"/>
          <path class="cls-5" d="m332.69,260.1c-.4-.03-.39.47-.49,1.03,0-.03.01-.06.03-.09.48.33.52-.31.46-.93Z"/>
          <path class="cls-5" d="m332.17,261.26c-.03.17-.07.34-.16.49.19.14.13-.18.16-.49Z"/>
          <path class="cls-5" d="m333.81,254.15c-.05.3.54.08.41.28.28.12.04-.35-.2-.63-.27-.27-.49-.39-.21.35Z"/>
          <path class="cls-5" d="m331.29,260.2l.53-.05-.33-.38c-.07.14-.12.29-.2.43Z"/>
          <path class="cls-5" d="m332.05,256.21c-.02.28-.05.56-.11.83.08-.01.13.09.17.22.04-.51.1-1.09-.05-1.06Z"/>
          <path class="cls-5" d="m332.1,257.27c-.02.27,0,.52.06.68.02-.14,0-.46-.06-.68Z"/>
          <path class="cls-5" d="m331.38,259.09c.05-.07.11-.14.15-.22l.1-.56c-.08.26-.14.53-.25.78Z"/>
          <path class="cls-5" d="m328.54,248.17l-.69-.57c-.19.05-.11.3.16.5.23.08.5.28.53.07Z"/>
          <path class="cls-5" d="m329.07,251.06c-.03-.24.05-.32.12-.52l-.53.33.4.19Z"/>
          <path class="cls-5" d="m327.46,249.24c-.19.05-1.22-.64-.45.18.19-.05.88.52.45-.18Z"/>
          <polygon class="cls-5" points="319.27 238.73 319.43 238.89 320.17 238.2 319.27 238.73"/>
          <path class="cls-5" d="m309.71,231.54c.51.95.64-.23,1.03.68.34.03-.32-.74,0-.69-.61-.31-.72-.65-1.03.01Z"/>
          <path class="cls-5" d="m310.74,231.53c.1.05.2.1.33.14-.17-.1-.26-.13-.33-.14Z"/>
          <polygon class="cls-5" points="303.15 269.13 303.43 269.78 303.4 269.23 303.15 269.13"/>
          <path class="cls-5" d="m304.57,269.6l-.38.55.71-.08c-.12-.1-.36-.28-.32-.46Z"/>
          <path class="cls-5" d="m282.42,205.18l.05-.15c-.06-.17-.17-.21-.4-.25.12.12.24.27.35.4Z"/>
          <polygon class="cls-5" points="276.06 206.53 276.16 206.47 275.63 206.14 276.06 206.53"/>
          <path class="cls-5" d="m271.17,211.84c.18-.13.25-.39.45-.55-.28.43-1.01.07-.45.55Z"/>
        </g>
      </g>
      <g>
        <rect class="cls-1" x="255.93" y="263.63" width="81.8" height="30" rx="12" ry="12" transform="translate(-110.07 265.31) rotate(-41.31)"/>
        <g>
          <path class="cls-5" d="m330.25,272.45c-.28.22.09.45.1.54.39-.5-.18-.61-.1-.54Z"/>
          <polygon class="cls-5" points="332.82 267.26 332.94 267.42 332.87 266.51 332.82 267.26"/>
          <path class="cls-5" d="m333.97,262.23c-.69.44-.03,1.87-.51,2.74l-.19.11c.16.18.29.36.44.55.24-1.14.06-2.63.26-3.4Z"/>
          <path class="cls-5" d="m335.3,259.21c-.24.24-.34-.61.03.72.03-.07.04-.09.05-.14-.02-.12-.05-.29-.08-.58Z"/>
          <path class="cls-5" d="m335.38,259.8c.1.6.18-.43,0,0h0Z"/>
          <path class="cls-5" d="m334.61,257.11l.46.7c.11-.2-.05-.92.14-.69-.4-.76-.51-.52-.59,0Z"/>
          <path class="cls-5" d="m333.85,256.59l.24.34c.04-.09.02-.2-.24-.34Z"/>
          <path class="cls-5" d="m334.56,257.67c-.15-.26-.29-.51-.47-.75-.07.15-.28.22.21.34-.22,0,.02.09.26.4Z"/>
          <path class="cls-5" d="m334.59,258.17c-.03.46-.03,1.01-.43.33.36,1.39.86,1.12.43-.33Z"/>
          <path class="cls-5" d="m333.24,261.96l-.22.5c.08.15.14.3.21.45-.07-.22.23-.98.01-.95Z"/>
          <path class="cls-5" d="m332.57,252.53c-.15.05-.15.46-.28.62.17.11.32.25.47.38-.06-.32-.35-.82-.2-.99Z"/>
          <path class="cls-5" d="m332.3,253.15l-.74-.51c.45.61.63.65.74.51Z"/>
          <path class="cls-5" d="m333.07,256.76c.33.34.67.7.95,1.09-.3-.48-.7-.91-1.05-1.32l.1.23Z"/>
          <polygon class="cls-5" points="330.7 250.29 331.23 250.36 330.35 250.18 330.7 250.29"/>
          <path class="cls-5" d="m329.47,248.99c.42.03.1-.63.44-.51-.36-.33-.82-.48-1.24-.61.36.22.61.56.8,1.13Z"/>
          <path class="cls-5" d="m328.01,247.6c.18.1.41.18.66.26-.19-.11-.4-.21-.66-.26Z"/>
          <path class="cls-5" d="m330.79,251.62c.03-.1.14-.34-.04-.71l-.14.49c.05.07.12.14.18.21Z"/>
          <path class="cls-5" d="m330.61,251.42v-.02c-.19-.24-.32-.4-.38-.47.05.06.16.21.38.48Z"/>
          <path class="cls-5" d="m330.83,251.67s-.03-.03-.05-.05c-.01.05-.01.07.05.05Z"/>
          <path class="cls-5" d="m332.47,254.68c-.47-.3-1.2-.95-1,.03.43.12.31-.45,1-.03Z"/>
          <path class="cls-5" d="m330.66,252.28c.14.21.28.41.44.67.08-.08.1-.32.35-.2-.28-.2-.54-.34-.79-.47Z"/>
          <polygon class="cls-5" points="330.32 252.1 330.66 252.28 330.51 252.05 330.32 252.1"/>
          <path class="cls-5" d="m328.56,248.84c-.35-.12-.6-.38-.89-.66.22.38.48.74.76,1.06.14-.04.44-.06.13-.4Z"/>
          <path class="cls-5" d="m329.53,250.12s-.05-.03-.07-.04c0,.06.02.09.07.04Z"/>
          <polygon class="cls-5" points="324.18 245.13 324.21 245.23 324.26 245.18 324.18 245.13"/>
          <path class="cls-5" d="m328.42,249.34c.15.3.36.37.58.43-.19-.15-.38-.33-.57-.53-.06.02-.1.04-.01.11Z"/>
          <path class="cls-5" d="m326.96,246.79c.08.21.19.43.31.66-.04-.23-.18-.68-.31-.66Z"/>
          <path class="cls-5" d="m329.48,249.92l.05.02c0-.14-.03-.1-.05-.02Z"/>
          <path class="cls-5" d="m329.48,249.92c-.16-.08-.32-.11-.48-.15.16.13.31.23.46.31,0-.05,0-.11.02-.16Z"/>
          <path class="cls-5" d="m321.72,246.89c.2-.32,1.2-.28,1.56.53.76.16,1.18-1.13.93-2.18-.12.14-.19.24-1.06.04.2.3,1.3,1.41.53,1.32-.98-.41-.67-.56-1.03-1.01.08.33-.3.31-.71.35-.42.05-.84.13-.88.51.29.04.6.05.89.12-.04.11-.39.12-.23.33Z"/>
          <path class="cls-5" d="m325.55,246.26l.31.2c-.28-.31-.38-.66-.68-1.22-.63-.2-.81-.14-.92-.05.49.35.99.69,1.42,1.11l-.13-.03Z"/>
          <path class="cls-5" d="m327.04,247.59c-.52.08-1.22-.37-1.2.32.7.68.78.27,1.27.55-1.14-1.08.53.2-.1-.83.31.21.48.37.65.54-.14-.25-.27-.49-.4-.73,0,.02,0,.03,0,.05h0s0,0,0,0c.01.09,0,.13-.03.05,0,0-.02-.01-.03-.02-.05.03-.11.04-.17.05-.28-.42.03-.13.17-.05.02-.01.04-.01.06-.03h0c-.47-.37-.91-.75-1.42-1.05.25.27.59.58,1.18,1.13Z"/>
          <path class="cls-5" d="m330.25,254.56c0-.06.03-.08.05-.1-.1-.04-.15-.05-.05.1Z"/>
          <path class="cls-5" d="m330.08,253.92c.11.05.31.01.49.32.09.32-.17.12-.27.22.22.09.7.43.46-.25l-.11-.05c-.13-.29-.22-.67-.27-.99-.04-.3-.04-.51.02-.5-.18.38-.28.68-.32,1.25Z"/>
          <path class="cls-5" d="m328.48,250.8l-.96-.77.13.71.15-.17c.39.57.5.28.68.23Z"/>
          <path class="cls-5" d="m324.16,244.85l.4-.28c-.35.01-.72.08-1.07.13l.66.15Z"/>
          <polygon class="cls-5" points="322.43 244.03 322.66 243.69 322.09 243.71 322.43 244.03"/>
          <path class="cls-5" d="m265.16,300.81l.24.18c-.1-.09-.18-.14-.24-.18Z"/>
          <path class="cls-5" d="m264.23,298.98l-.2.02c.14.05.22.06.2-.02Z"/>
          <path class="cls-5" d="m288.24,262.89c-.63.06-1.45.02-1.1.31l.41.22c.22-.3.46-.44.7-.53Z"/>
          <path class="cls-5" d="m270.09,282.29c.06,0,.13,0,.2,0,0-.19,0-.38-.01-.54-.06.17-.12.35-.19.54Z"/>
          <path class="cls-5" d="m271,283.88l-.7.24c.18-.03.41-.1.7-.24Z"/>
          <path class="cls-5" d="m274.32,308.67l.42-.33c-.45-.14-.32.13-.42.33Z"/>
          <path class="cls-5" d="m305.22,248.12c-.45.17-.76.35-1.01.54.57-.17,1.14-.17,1.01-.54Z"/>
          <path class="cls-5" d="m260.7,302.35c.18.19.33.23.41.18-.21-.18-.33-.28-.41-.18Z"/>
          <path class="cls-5" d="m303.24,249.51c.09-.02.16-.05.24-.08.2-.27.41-.53.72-.77-.42.12-.84.34-.97.85Z"/>
          <path class="cls-5" d="m312.41,281.61s.08-.03.12-.04c-.03-.05-.07-.02-.12.04Z"/>
          <path class="cls-5" d="m326.45,275.1c-.09.12-.27.28-.44.43.1-.05.24-.17.44-.43Z"/>
          <path class="cls-5" d="m314.94,242.68c.4-.06.06-.05,0,0h0Z"/>
          <path class="cls-5" d="m316.88,244.32c-.08.05-.14.11-.15.21.03-.1.08-.17.15-.21Z"/>
          <path class="cls-5" d="m302.53,253.73l-.02.02c.13,0,.11,0,.02-.02Z"/>
          <path class="cls-5" d="m315.57,242.83c-.15-.04-.33-.07-.53-.09.09.03.25.06.53.09Z"/>
          <path class="cls-5" d="m315.47,242.63c.14,0,.25.01.36.02.05-.08,0-.12-.36-.02Z"/>
          <path class="cls-5" d="m314.38,242.78c.23-.05.45-.05.66-.04-.08-.02-.12-.04-.1-.06-.12.02-.29.04-.56.1Z"/>
          <path class="cls-5" d="m292.66,300.52s.05-.01.08-.02c.13-.36.04-.24-.08.02Z"/>
          <path class="cls-5" d="m284.7,272.01s0-.03.02-.04c-.02,0-.03.01-.05.02l.03.02Z"/>
          <path class="cls-5" d="m284.01,273.04c.03-.74.29-.88.65-1.05l-1.12-.68.47,1.73Z"/>
          <path class="cls-5" d="m269.04,305.18l-.26-.89c1.15.34,1.47,1.04,1.36.08-1.1.81-2.26-2.36-3.36-1.56l-.15-.6c.1.13.17.09.27.22-.22-1.23-1.32.01-1.89-1.03-.16-.39-.12-.74.15-.6-.24-.19-.52-.36-.74-.57-.09-.25.15-.3.23-.06-.23-.38-.48-.75-.66-1.17h.04c-.27-.1-.74-.42-.92-.61.09-.4.19.13.32,0-.17-.22-.36-.44-.52-.67.15-.2.33-.15.48,0,.17.15.32.4.36.66.56-.53.44-.62.22-.83-.17-.2-.52-.53-.17-1.29.07.22.14.44.25.64.33-.27.44-.5.51-.77.05-.26.1-.56.35-.9-.12.07-.46.42-.74.68-.29.26-.6.45-.8.06.07-.24.15-.52-.13-.97.47.01.39-.4.42-.92l.63.12c-.11-.55-.41-.57-.63-.96.2-.62.75-.58,1.17-.58.39-.87-.97.39-.7-.76.28-.34.4-.67.52-1.03.09-.38.17-.8.32-1.34.52-.37.25.32.52.25-.04-.24-.05-.47-.07-.72.09-.09.19.04.23.11.15-.47-.49-.46-.09-1.11-.17-.32.27-.41.82-.58.57-.18,1.21-.43,1.35-1.08.32-.04.16.38.39.51.75-1.36.69-1.11,1.12-2.43l1.04-.36c-.88.13-.54-.92-.21-1.83-.35,0-.66,0-.84.03l.78-1.14c.19-.03.23.23.25.57.03-.1.06-.2.08-.28.52-.14.57.3.55.8l-.62.02c0,.51.06,1.04.36,1.27.02-.11.1-.27.22-.42,0,.14.03.24.1.27.08.02.09-.18.15-.45l.7.33-.13-.26,1.61-.82c.47-1.37.59-2.88,1.89-4.42-.03.72.48.71.87,1.19-.84-.13-.97,1.23-1.84,1.81.45-.3.56,0,.52.16l.99-1.66c.3.41.54.03,1.04-.13-.93-.51.59-1.41.95-2.13.26.22.35.6-.39,1.14,1.26-.1.2-1.74,1.37-1.91-.16.15-.29.19-.24.38.19-.57,1.31-1.23,1.27-.81l-.16.15c1.19-.89,3.39-2.97,2.99-3.75.08.07.53.9.58,1.09l.1-3.89c.31.7,2.13,1.42,1.48,2.54.33-.15.74-.35,1.13-1.04-.25.08-1.15-.4-.94-.66,1.21.02.76-.09,2.05-.3-.37.12-.83-1-.38-1.35.05.19.78.82.7,1.04l.32-1.78c-.13.39.58.76,1.03.79-.26-.07.93-.79,1.14-1.13l-.62.2c1.32-.93.14-2.23,1.38-3.24,0,.3.59,1.39,1.29.96-.1-.68-.6-3.16.16-4.42l.42.07.56-.99c.07,1.09-.14,3.71-.45,4.92.62-.2.38.18,1.04-.43.44.02-.06.67-.24.86l1.7-1.23c-.51-.44.75-1.56.33-1.93l-1.24,2.02c-.51-.44-.27-2.3.92-3.19.46-.05.58,1.08.75,1.23,0-.3.76-1.26.97-1.23l-.23.68c.79-.35.42-1.56,1.59-1.73.29-.19,1.34-.02,1.12-.36-.93-.21-2.57-1.92-2.68-2.6.12-.04,1.83-.63,2.38-.61.82.08.31,1.63,1.01,1.71-.11-.15-.02-.53.03-.67.37-.12.26.53.79-.05-.35-.6,1.23-1-.1-.68.44-.65.7-.43,1.35-1.04-.51-.14-.39-1.66.06-2.31.08.16.36.22.49.24,1.21-.99,2.05-1.31,3.15-2.27.21.04.87-.28.84.14.08-.23.07-.53.4-.84,1.04-.13-.69.73.27.83-.22-.33.51-1.18.83-1.79-.55-.33-1.19.89-1.51,1.5-.56-.63-.3-2.03.58-3.33.77-.96.75.06.83-.17.95-.7,1.17-1.31,1.42-1.82.23-.54.53-.98,1.63-1.18.99.19.45.97.78,1.26-.82.59-1.55.37-2.13.79l.85-.24c-.19.33-.67.79-1.05.87.4.02,1.19-.51,2.19-.95,1-.41,2.2-.77,3.08-.65.26-.25.78-.46.51-.66-.19.03-.37.09-.55.15-.29-.17-.05-.36.18-.53.23-.16.45-.26.06-.33.38-.18.8-.42,1.27-.57.48-.11,1.02-.2,1.59,0l.15.63c0-.19-.71-.45-1.04-.25.24-.14.67.09,1.09.29.42.18.82.32,1.15,0-.23-.19-.47-.4-.72-.56.85-.21,2.09-.57,3.08-.02-.28-.73-.25,0-.81-.93.21.53-.47.28-1.12.16-.65-.16-1.24-.21-.78.31-.68-.91-1.31-.53-2.39-1.22.04.21.39.37-.57.3-.04.06-.14.14-.2.19-.03,0-.04,0-.06-.01l.05.02s-.04.04.02,0c.23.07.41.16.49.27-.22.24-.68.39-1.14.52-.46.13-.91.29-1.12.44-.54,0,.17-.27-.16-.43-.22.15-.42.34-.62.52-.16-.42-1.61-.32-.42-.93-.39.1-.77.19-1.15.34-.75-.01-1.71.34-2.15.79-.56.2-.95,1.18-.73.61-.49.4-.91.87-1.33,1.32l-.09-.08c-1.27,1.01-1.88,2.64-3.74,3.18-.31.42-.61.88-1.34,1.35l-.38-.18c-.4.53-1.74,1.01-1.68,1.5-1.22-.32-2.54,1.93-3.53,2.56l.3.41c-.62.5-1.09,1.12-1.7,1.92l.34.3c-.4.84-1.85,1.2-2.83,2.13-.04-.19.24-.38.49-.46-1.88.3-2.06,2.79-3.64,3.2-.16.36-.4.49-.66.58.02-.02.04-.05.05-.08-.03.02-.07.06-.12.09-.17.05-.35.09-.54.15.19-.02.36-.05.48-.1-.2.19-.49.51-.73.87l-.45-.24s-.04.05-.06.07c-.42.14-.1.39.31.52-.11.2-.19.4-.22.58-.76-.36-.65.92-1.54.59.06.49-1.37,1.61-.98,2.4-.08-.07-.21-.03-.05-.19-.41.23-.83.47-.98.92l-.55-.33-.22,1.29c-.71.13-1.04.13-.9-.63-.63,1.52-.72,1-1.19,2.36l-.22-.34c-.33.31-.52,1.18-.94,1.11-1.25.1-3.8,3.2-6.2,4.38,1.15.55-1.24.4-.73,1.15-.29-.11-.67.01-.51-.44-.81,1.07-1.77.98-1.95,2.15-.3-.11-.05-.49-.26-.52-.04.11-.16.46-.37.42-.21-.03,0-.3.07-.53-.98.92-.52,1.65-.07,2.31-.76.17-.98.43-1.01,1.15-.35-.04-.83.02-.26-.6-.38.28-2.41,1.61-2.02,2.12-.22-.02-.52.4-.57.54-.82.67-.92.69-1.66,1.41l.28-.11c.21.83-.54.73-1.13,1.43l-.04-.07c-.88.61-1,.84-1.07,1.06-.07.23-.18.4-.99,1.14l.47.14c.4.35.06.64-.41,1.04-.43.42-1.02.97-.99,1.62l.39-.32c.08.36-.41.67-.91,1.03-.49.36-1.08.76-1.18,1.12-.1.14-.12-.27-.13-.5-.86,1.81.57.34.57,1.71-.34.24-.85-.39-.94.57-.15.24.12.95.43,1.71.13.38.32.77.42,1.16.09.39.14.76.08,1.11.18-.34.36-.65.72-.11.15.45.13,1.12.23,1.78.09.66.37,1.26.91,1.45,0,.14-.03.21-.08.25.3.25.66.73,1.11,1.1.43.36.87.69,1.16.66-.85,1.54,3.22,2.45,2.07,3.45l1.37,1.43-.16.06c.93,1.15,1.61,1.18,2.2,1.21.18.29-.08.25-.15.3.74.74,1.22,1.12,1.73,1.3.5.21,1.05.23,1.97.19v.53c.27-.09.89.4,1.81.73.9.38,2.1.59,3.14.3-.02.06-.06.15-.23.22,1.17-.29,2.58-.1,3.85-.28,1.26-.14,2.3-.59,2.26-1.59.39-.35.75-.73,1.07-1.13-1.65.89-.18-.81-.98-.66.26-.23.71-.34,1.01-.37.3-.03.46.08.14.39h-.17c.13.49.66.22,1.18-.15.55-.36.94-.74,1.16-.49,2.52-2.28,5.35-4.07,7.77-6.15l-.76-.31.86-.7c.33-.06.67.17.06.67.59.04.77-1.14.68-1.27,1.36-.8.11,1.04.48.74l.45-.47-.17.03c.2-.57.02-.84.76-1.44.55-.29.53.13.73,0,.03.04.11,0,.29-.22l1.09-.88-.8-.06c.28-.62,1.01-.85.09-.91,1.38.13,4.16-3.17,4.8-3.32.37-.89,1.02-1.45,1.85-2.11-.28.08-.83-.3-.08-.84.63,1.23,1.64-.67,2.84-.43-.92-.04,1.85-1.84.47-1.83.65-.42.37.35,1.01.2,1.02-1.59,3.23-2.39,4.81-4.01-.09-.16-.55-.11-.36-.62l1.47-.12c.28-.36-.36-1.03.65-1.11-.18-.04-.46-.09-.27-.33,3.87-2.26,6.3-6.47,10.72-8.21-.68.14-.4-.15-.06-.46-.28.14-.28-.33-.48-.47l1.84-.74c-.18-.72,1.48-1.36,1.21-1.96l-.37.48c.1-1.08-1.92-.52-2.47-1.31-.1,1.22-2.58.59-2.86,2.46-.37.06,0-.41-.27-.47,0,.55-.28.91-1.02,1.31v-.14c-1.67,1.6-2.68,1.95-4.8,3.46l.46.23c-.46.32-.65.29-.92.37,0,.96,1.2-1,1.29-.02-1.19-.24-2.96,2.58-4.06,2.09-.65.56.55.25-.1.81l-.37-.07.09.43c-.46.32-.92.23-1.1.06.12-.07.24-.31.34-.42-.78.22-1.47,1.45-1.73,1.53l.74-.41c-1.57,1.75-3.98,3.35-5.28,5.29l.28.05c-1.02,1.45-1.2.73-2.5,2.12l.02-.09c-.14.42-.44.84-.85,1.16.19-.51-1.01.21-.73-.42-1.11,1.57-.47.87-.85,2.31l-.46-.09c-.09.53,0,.69-.65,1.38.37-.75-.83-.03-.45-.92-2.03.7-1.68,2.56-3.14,2.27,0,1.37,1.67-.71,1.43-.2.54-.03-.06,1.07-.6,1.41-.49.4-1.68-.27-2.86.79.12-.1.08-.17.2-.27-.62.2-.65,1.04-1.48,1.2.1.74-.74.6-.3,1.27l.98-1.1c-.49.7-.46,1.91-1.78,2.48-.03-.19.14-.62.27-.89-.45.09-.48.62-.95.72-.43-.67,1.22-1.3,1.49-2.35-.54.03-.89,1.54-1.12.6.24,1.24-1.27.93-1.53,2.27l-.26-.4c-.08.17-.2.57-.44.77l.02-.84c-.31.97-1.57.77-2.01,1.54,1.31-1.17.67.17,1.46-.06-1.21,1.91-1.76-.11-3.43,1.66.2-.27,1.11-.6.87-.1-.41.23-.99.5-1.37.5-1.14,1.14.51.2.19.88-.79-.07-.44.7-.85,1.3l-.32-.36c-1.57.96.27,1.12-1.12,1.76.03-.31.04-.61.05-.89l-.45.58-.21-.54c-.38.74-.65.82-1.38,1,.3.21.32.87-.35,1.13-.55-.1.08-.51-.81-.12.13-.34.19-.8.73-.52-.02-.16.08-.35.05-.51-.29-.07-.56.01-.8.14-.24.12-.48.23-.63.28.12-.02.28-.03.37.01l-.56.5c-.2.15-.4.3-.62.45-.24-.14-.09-.32.05-.49-.26.1-.41.36-.83.42.07-.41.02-.78.52-1.04-.37.21-.77.37-1.18.53-.09-.17-.62-.48-.46-.62-.32-.1-.72,0-1.18.15-.45.08-.98.17-1.36-.13-.07.06-.18.1-.39.1-.79-.43-1.21-1.11-2.32-1.27-.03-.29-.02-.61,0-.9-.33-.18-.34.1-.4.37-.06.26-.15.5-.78.15-.85-.55.17-.69.08-1.06-.27,0-.76-.17-1.19-.42-.43-.25-.81-.63-.96-1.23.34.19.45.47.72.69Zm-5.67-9.17c.12.2.45.55.19.72-.57-.16-.32-.38-.19-.72Zm8.72-14.24c-.03.24-.29.36-.65.44.15-.18.35-.34.65-.44Zm38.69-37.58s-.01.02-.02.03c-.66.12-.43.08.02-.03Zm1.32-.29c.11-.1.08-.16,0-.21-.06.14-.33.26-.66.35.14.08.32.1.66-.14Zm-14.63,56.7l-.25.05c.28-.43.26-.25.25-.05Z"/>
          <path class="cls-5" d="m270.9,283.7c-.11-.02-.18-.07-.25-.13-.02.12.04.2.25.13Z"/>
          <path class="cls-5" d="m274.24,308.73h.03s.04-.03.05-.06l-.08.06Z"/>
          <path class="cls-5" d="m300.41,258.13c-.22.1-.38.12-.5.11.07.1.21.1.5-.11Z"/>
          <path class="cls-5" d="m319.19,242.61c-.3-.03-.6,0-.9,0,.43.03.57.14.77.26,0-.11-.14-.31.14-.26Z"/>
          <path class="cls-5" d="m324.25,248.17c.12.02.18.14.29.16l.13-.19c-.36-.29-.72-.35-.42.03Z"/>
          <path class="cls-5" d="m319.63,244.34c-.03.4.47.39,1.03.49-.03,0-.06-.01-.09-.03.33-.48-.31-.52-.93-.46Z"/>
          <path class="cls-5" d="m320.79,244.86c.17.03.34.07.49.16.14-.19-.18-.13-.49-.16Z"/>
          <path class="cls-5" d="m313.68,243.22c.3.05.08-.54.28-.41.12-.28-.35-.04-.63.2-.27.27-.39.49.35.21Z"/>
          <path class="cls-5" d="m319.72,245.74l-.05-.53-.38.33c.14.07.29.12.43.2Z"/>
          <path class="cls-5" d="m315.74,244.98c.28.02.56.05.83.11-.01-.08.09-.13.22-.17-.51-.04-1.09-.1-1.06.05Z"/>
          <path class="cls-5" d="m316.8,244.93c.27.02.52,0,.68-.06-.14-.02-.46,0-.68.06Z"/>
          <path class="cls-5" d="m318.62,245.65c-.07-.05-.14-.11-.22-.15l-.56-.1c.26.08.53.14.78.25Z"/>
          <path class="cls-5" d="m307.69,248.49l-.57.69c.05.19.3.11.5-.16.08-.23.28-.5.07-.53Z"/>
          <path class="cls-5" d="m310.59,247.96c-.24.03-.32-.05-.52-.12l.33.53.19-.4Z"/>
          <path class="cls-5" d="m308.77,249.56c.05.19-.64,1.22.18.45-.05-.19.52-.88-.18-.45Z"/>
          <polygon class="cls-5" points="298.26 257.75 298.42 257.6 297.73 256.86 298.26 257.75"/>
          <path class="cls-5" d="m291.06,267.32c.95-.51-.23-.64.68-1.03.03-.34-.74.32-.69,0-.31.61-.65.72.01,1.03Z"/>
          <path class="cls-5" d="m291.05,266.29c.05-.1.1-.2.14-.33-.1.17-.13.26-.14.33Z"/>
          <polygon class="cls-5" points="328.66 273.88 329.31 273.6 328.75 273.63 328.66 273.88"/>
          <path class="cls-5" d="m329.13,272.46l.55.38-.08-.71c-.09.12-.28.36-.46.32Z"/>
          <path class="cls-5" d="m264.71,294.61l-.15-.05c-.17.06-.21.17-.25.4.12-.12.27-.24.4-.35Z"/>
          <polygon class="cls-5" points="266.06 300.97 266 300.87 265.67 301.4 266.06 300.97"/>
          <path class="cls-5" d="m271.37,305.86c-.13-.18-.39-.25-.55-.45.43.28.07,1.01.55.45Z"/>
        </g>
      </g>
      <ellipse class="cls-3" cx="251.39" cy="265.06" rx="122.5" ry="111.5"/>
    </g>
  </g>
</svg>