<?xml version="1.0" encoding="UTF-8"?>
<svg xmlns="http://www.w3.org/2000/svg" viewBox="0 0 500 500">
  <defs>
    <style>
      .cls-1 {
        fill: #e9f4fd;
      }

      .cls-2 {
        fill: #fff;
        opacity: .61;
      }

      .cls-3 {
        stroke: #80d7c2;
        stroke-miterlimit: 10;
        stroke-width: 3px;
      }

      .cls-3, .cls-4 {
        fill: none;
      }

      .cls-5 {
        fill: #d98bb6;
      }

      .cls-6 {
        fill: #d47aab;
      }
    </style>
  </defs>
  <g id="BACKGROUND">
    <rect class="cls-2" width="500" height="500"/>
  </g>
  <g id="OBJECTS">
    <ellipse class="cls-6" cx="251.89" cy="264.06" rx="130" ry="119.5"/>
    <line class="cls-4" x1="307.89" y1="230.56" x2="323.89" y2="264.06"/>
    <g>
      <rect class="cls-1" x="170.5" y="241.56" width="159" height="30" rx="12" ry="12"/>
      <g>
        <path class="cls-5" d="m318,273.97c-.63,0-.41.4-.5.48,1.09-.14.46-.59.5-.48Z"/>
        <path class="cls-5" d="m326.78,269.31v.24c.27-.42.47-.88.69-1.32-.22.35-.42.75-.69,1.08Z"/>
        <path class="cls-5" d="m330.86,261.31c-.21.19-.34.48-.42.84-.11.35-.19.77-.26,1.23-.09.45-.22.91-.35,1.37-.17.44-.37.85-.6,1.18l-.28.15c.04.3.08.61.11.93.5-.88.94-1.96,1.2-3,.29-1.03.42-2.01.61-2.69Z"/>
        <path class="cls-5" d="m332.53,256.78c-.28.27-.24-.94-.09,1.01.03-.1.05-.13.07-.18,0-.18,0-.42.02-.83Z"/>
        <path class="cls-5" d="m332.52,257.61c.02.86.23-.56,0,0h0Z"/>
        <path class="cls-5" d="m332.36,253.65l.25,1.13c.16-.24.2-1.24.32-.87-.02-.15-.04-.27-.05-.38-.02-.13-.05-.24-.07-.32-.05-.17-.09-.24-.14-.24-.09,0-.18.31-.31.67Z"/>
        <path class="cls-5" d="m331.78,252.39l.14.7c.06-.12.08-.32-.14-.7Z"/>
        <path class="cls-5" d="m332.16,254.41l-.24-1.32c-.11.19-.33.25.1.65-.21-.1,0,.14.14.67Z"/>
        <path class="cls-5" d="m332.06,255.11c-.16.63-.25,1.45-.5.32.1,2.16.6,1.84.5-.32Z"/>
        <path class="cls-5" d="m330.19,260.78c-.1.29-.22.58-.33.86.04.27.08.54.09.81,0-.39.48-1.69.25-1.66Z"/>
        <path class="cls-5" d="m330.22,245.23c-.17.01-.09.63-.21.81.22.26.46.52.65.81-.12-.53-.61-1.42-.45-1.62Z"/>
        <path class="cls-5" d="m330.02,246.04c-.33-.4-.68-.76-1.06-1.1.4.53.62.86.77,1.02.15.16.24.16.29.08Z"/>
        <path class="cls-5" d="m330.98,252.23l.33,1.15.28,1.05c-.18-.76-.37-1.77-.68-2.64.02.15.05.29.07.44Z"/>
        <path class="cls-5" d="m326.03,240.94l.93.26c-.54-.19-1.07-.36-1.63-.47l.69.22Z"/>
        <path class="cls-5" d="m322.42,239.21c.73-.04-.72-.78.01-.71-1.1-.3-2.11-.25-2.97-.13.9,0,1.88.22,2.96.84Z"/>
        <path class="cls-5" d="m318.03,238.58c.44-.04.91-.17,1.42-.21-.48-.02-.96.08-1.42.21Z"/>
        <path class="cls-5" d="m327.31,243c-.03-.14,0-.49-.62-1.11.08.23.14.46.19.71.13.12.28.26.43.4Z"/>
        <path class="cls-5" d="m326.88,242.62v-.02c-.48-.43-.85-.68-1-.8.12.11.45.33,1,.83Z"/>
        <path class="cls-5" d="m327.42,243.1s-.07-.06-.11-.1c.01.07.03.1.11.1Z"/>
        <path class="cls-5" d="m330.47,248.51c-.53-.73-1.54-2.09-1.14-.47.51.41.32-.57,1.14.47Z"/>
        <path class="cls-5" d="m327.55,243.99c.32.4.65.79.92,1.23.07-.09.03-.42.38-.15-.4-.4-.86-.74-1.3-1.08Z"/>
        <path class="cls-5" d="m326.93,243.56c.22.13.43.27.63.43-.12-.15-.24-.3-.37-.43h-.25Z"/>
        <path class="cls-5" d="m320.76,239.34c-.36,0-.73,0-1.11-.03-.38-.03-.78-.08-1.2-.07.45.05.9.16,1.35.25.45.08.89.2,1.32.31.15-.1.61-.23-.36-.46Z"/>
        <path class="cls-5" d="m323.93,240.6s-.1-.03-.15-.05c.07.07.13.12.15.05Z"/>
        <polygon class="cls-5" points="311.32 239.19 311.43 239.27 311.46 239.19 311.32 239.19"/>
        <path class="cls-5" d="m321.24,239.92c.63.23,1.02.32,1.44.32-.49-.14-1-.31-1.57-.43-.07.05-.09.08.13.12Z"/>
        <path class="cls-5" d="m315.98,238.76c.3.09.63.17.99.23-.29-.14-.88-.35-.99-.23Z"/>
        <path class="cls-5" d="m323.62,240.35s.07.02.1.03c-.17-.18-.16-.13-.1-.03Z"/>
        <path class="cls-5" d="m323.62,240.35c-.34-.1-.64-.12-.94-.12.41.1.77.24,1.1.33-.06-.06-.12-.14-.16-.21Z"/>
        <path class="cls-5" d="m309.21,241.93c.1-.4,1.6-.76,2.89-.34,1.27-.3.44-1.6-.67-2.33-.04.17-.04.33-1.35.57.46.22,2.91.51,1.8.86-1.74.2-1.42-.14-2.27-.35.72.49-2.21.72-1.83,1.44l1.52-.26c.03.11-.52.29-.1.4Z"/>
        <path class="cls-5" d="m313.93,239.31l.54-.05c-.61-.07-1.05-.23-1.86-.54-.9.19-1.08.34-1.15.47l2.66.06-.18.06Z"/>
        <path class="cls-5" d="m316.89,239.25c-.42.43-1.72.61-.92,1.08.79-.02,1.07-.11,1.27-.21.19-.11.31-.24.86-.3-.76-.02-.98,0-1.07-.02-.08-.02.03-.06.17-.11.27-.1.63-.25-.29-.37.47-.08,1.02-.08,1.53-.07-.51-.08-1.01-.17-1.48-.24.02.01.04.02.06.03h.01s0,0,0,0c.11.05.15.09.02.06,0,0-.04,0-.05,0-.02.06-.06.11-.12.16-.74-.09-.12-.11.12-.16,0-.02.03-.04.03-.07h0s-2.56.23-2.56.23c.54.06,1.22.05,2.42,0Z"/>
        <path class="cls-5" d="m327.83,247.22c0-.09.02-.1.04-.12-.13-.12-.2-.15-.04.12Z"/>
        <path class="cls-5" d="m327.44,246.18c.15.13.43.13.71.7.18.54-.18.11-.28.21.29.25.96.98.51-.16l-.15-.13c-.2-.52-.48-1.09-.63-1.58-.2-.46-.3-.8-.21-.74-.07.51-.06.89.05,1.7Z"/>
        <path class="cls-5" d="m323.07,241.57c-.36-.15-.74-.25-1.12-.35-.37-.11-.75-.19-1.14-.25.35.21.68.44,1,.7l.02-.23c.6.26.85.32.98.3.14-.02.15-.14.27-.18Z"/>
        <polygon class="cls-5" points="311.08 238.97 311.36 238.52 310.13 239.16 311.08 238.97"/>
        <polygon class="cls-5" points="308.31 239.03 308.41 238.63 307.68 238.87 308.31 239.03"/>
        <path class="cls-5" d="m173.91,263.86c.1.13.21.27.33.39-.16-.18-.24-.31-.33-.39Z"/>
        <path class="cls-5" d="m172.95,260.39l-.2-.07c.11.16.2.22.2.07Z"/>
        <path class="cls-5" d="m240.32,239.07c-.91-.37-1.93-.94-1.82-.5l.28.43c.64-.08,1.13-.03,1.54.06Z"/>
        <path class="cls-5" d="m193.76,241.66c.09.04.18.09.27.13.22-.15.43-.29.62-.41-.27.09-.57.18-.88.28Z"/>
        <path class="cls-5" d="m193.12,243.46l-1.2-.28c.27.1.66.19,1.2.28Z"/>
        <path class="cls-5" d="m193.99,268.73l.73-.44c-1.14,0-.64.22-.73.44Z"/>
        <path class="cls-5" d="m279.96,239.19c-.79-.17-1.41-.24-1.96-.26.95.25,1.71.62,1.96.26Z"/>
        <path class="cls-5" d="m168.99,263.98c.23.4.38.55.46.5-.23-.4-.4-.63-.46-.5Z"/>
        <path class="cls-5" d="m275.72,238.93c.14.04.27.07.42.1.58-.07,1.15-.13,1.86-.1-.7-.18-1.5-.3-2.27,0Z"/>
        <path class="cls-5" d="m283.75,269.09c.07.02.14.03.2.05.02-.06-.07-.06-.2-.05Z"/>
        <path class="cls-5" d="m309.9,273.46c-.26.03-.68.03-1.07.03.19.03.52.03,1.07-.03Z"/>
        <path class="cls-5" d="m297.17,238.84c.59-.03.09-.05,0,0h0Z"/>
        <path class="cls-5" d="m300.03,240.55c-.12.05-.22.11-.23.21.05-.1.13-.17.23-.21Z"/>
        <path class="cls-5" d="m269.87,241.63s-.03,0-.05,0c.17.09.14.07.05,0Z"/>
        <path class="cls-5" d="m298.06,239.04c-.22-.05-.47-.1-.75-.13.12.03.35.08.75.13Z"/>
        <path class="cls-5" d="m297.94,238.83c.2.02.36.03.51.04.07-.07,0-.12-.51-.04Z"/>
        <path class="cls-5" d="m296.35,238.86c.34,0,.65.01.95.04-.12-.03-.16-.05-.13-.07-.17,0-.42.01-.82.02Z"/>
        <path class="cls-5" d="m235.65,270.25s.08.02.13.04c.59-.18.33-.15-.13-.04Z"/>
        <path class="cls-5" d="m225.04,243.58s.04-.01.07-.02c-.03,0-.06-.01-.09-.02l.02.04Z"/>
        <path class="cls-5" d="m222.93,243.9c.9-.54,1.41-.47,2.09-.36l-.7-1.25-1.39,1.61Z"/>
        <path class="cls-5" d="m180.61,268.87c-.35-.24-.69-.42-1-.68.74-.09,1.29-.08,1.57-.15.28-.05.26-.14-.16-.48-.18.68-1.25.48-2.23.06-.5-.2-.95-.48-1.36-.61-.38-.17-.74-.21-.98.03-.14-.24-.26-.49-.39-.73.15.16.23.12.38.28-.34-.72-.65-.75-1.12-.8-.23-.02-.48-.06-.73-.21-.26-.15-.54-.4-.75-.87-.3-.66-.27-1.2.06-.84-.34-.4-.62-.84-.9-1.3-.09-.45.15-.4.26.03-.14-.36-.24-.74-.36-1.12-.06-.39-.18-.77-.21-1.16h.04c-.11-.15-.26-.42-.41-.71-.13-.33-.25-.69-.32-.91.2-.74.14.37.31.18l-.33-1.6c.35-.65.69.68.64,1.78,1.36-1.5-.34-1.33.45-4.56l.17,1.51c.39-.49.51-1.03.59-1.66.02-.16.04-.32.06-.49.02-.18.04-.35.08-.46.08-.26.13-.53.3-.81-.08.06-.2.23-.34.45-.14.24-.32.42-.47.75-.31.59-.64.91-.81.04.04-.27.11-.47.11-.75,0-.28-.04-.6-.1-1,.24.03.36-.14.43-.42.12-.28.15-.69.29-1.13l.59.26c.14-.93-.16-.99-.17-1.65.6-.96,1.17-.85,1.65-.78.26-.32.32-.44.27-.48-.05-.05-.23-.02-.39.01-.31.07-.71.07-.05-.76,1.2-.9,1.79-1.73,3.33-2.85,1.08-.16-.03.43.4.47.22-.25.45-.56.71-.78.23-.05.2.12.18.21.73-.37-.12-.69,1.16-1.06.15-.4.83-.19,1.75.04.96.25,2.1.48,3.04.08.46.18-.22.39-.08.64,2.57-.53,2.2-.38,4.31-1.09l1.8.42c-1.32-.48.37-1.05,1.85-1.52-.47-.23-.87-.44-1.14-.53l2.36-.34c.28.1.05.33-.34.59.16-.05.31-.11.43-.15.84.24.41.61-.2.96-.28-.13-.57-.27-.85-.39-.58.39-1.13.82-1.01,1.19.15-.07.45-.14.77-.17-.15.11-.25.2-.18.26.08.07.33-.07.71-.24l.54.71.13-.28,3.09.45c2.21-.72,4.13-1.77,7.63-2.07-.87.52-.19.85-.23,1.47-.96-.66-2.71.28-4.53.15.95.07.74.36.5.47l3.24-.6c-.07.51.69.38,1.53.59-.64-1,2.42-.67,3.73-.97.08.34-.23.68-1.84.6,1.77.75,2.29-1.18,4.04-.54-.39,0-.6-.04-.76.13.92-.3,3.16-.06,2.63.23h-.39c2.61.13,7.94.01,8.33-.84.03.11-.34,1.03-.5,1.2l4.65-2.86c-.41.73,1.16,2.47-1,2.88.62.1,1.39.23,2.7-.03-.42-.1-1.06-1.06-.48-1.12,1.59.81,1.1.43,3.06,1.13-.63-.16.07-1.3,1.07-1.27-.16.17.08,1.13-.28,1.25l2.5-1.12c-.62.2-.11.95.45,1.27-.26-.22,2.16.02,2.82-.09l-1.06-.26c2.82.17,2.78-1.58,5.58-1.52-.34.23-.84,1.43.59,1.57.65-.58,2.89-2.77,5.36-3.21l.47.33,1.9-.38c-1.18.87-4.5,2.69-6.31,3.4,1.05.26.29.39,1.87.36.56.31-.86.47-1.33.49l3.68.2c-.16-.67,2.81-.67,2.67-1.23l-4,.7c-.16-.67,2.31-1.91,4.92-1.79.66.27-.5,1.2-.44,1.42.34-.23,2.47-.44,2.71-.28l-1.11.36c1.45.25,2.37-.89,4.11-.25.6.04,1.8.87,1.9.47-.98-.77-1.17-3.14-.52-3.72.21.05,3.16.73,3.85,1.11.99.6-1.49,1.43-.64,1.95.04-.18.58-.41.81-.48.63.16-.26.57,1.11.49.23-.68,2.79.06.65-.58,1.34-.19,1.43.14,3.01.11-.5-.44,1.42-1.5,2.76-1.69-.08.17.22.4.37.5,2.75.06,4.23.37,6.8.38.24.17,1.48.37.95.66.37-.12.71-.35,1.5-.37,1.53.59-1.77.09-.6.8.1-.4,2.05-.55,3.18-.79-.35-.61-2.61-.12-3.74.13,0-.84,1.96-1.73,4.65-2.12,2.13-.21.92.55,1.3.43,4.01.15,3.41-1.47,6.74-.86,1.32.54.06,1.07.35,1.46-1.74.2-2.67-.34-3.85-.32l1.45.25c-.55.18-1.71.31-2.34.16,1.11.48,6.77.09,9.86.54.55-.18,1.5-.37,1.05-.58l-.98.07c-.9-.43,1.84-.6.6-.8,1.31-.3,2.78-.78,4.63-.54l.35.61c-.04-.18-1.21-.36-1.73-.18.77-.27,2.83.83,3.68.03l-1.29-.42c1.32-.31,2.95-.96,4.58-.77-.74-.61-.38.07-1.54-.64,1.01.88-4.19-.04-2.57.89-1.19-.82-2.07-.35-3.63-1.05.05.2.55.39-.82.29-.06.06-.21.13-.3.18-.04,0-.06,0-.09-.02.03,0,.05.02.08.02-.06.03-.06.04.03,0,.33.09.59.2.7.31-.68.46-2.87.45-3.61.69-.82-.1.34-.23-.1-.45l-1.1.36c-.11-.45-2.17-.75-.25-1.01l-1.73-.02c-1.02-.25-2.42-.35-3.28-.16-.82-.1-2.06.5-1.35.15l-2.71.28-.03-.11c-2.68-.06-5.51.74-8.57-.07-.9.11-1.83.25-3.34.12l-.29-.39c-1.16.14-3.47-.39-3.97.02-1.25-1.05-5.61-.23-7.65-.41l-.08.51c-1.4-.03-2.74.12-4.48.32l.11.45c-1.5.37-3.85-.32-6.22-.27.16-.17.76-.13,1.19-.02-2.83-1.01-5.97.74-8.54,0-.64.16-1.1.11-1.55,0,.06,0,.11-.01.16-.02-.07,0-.16,0-.26,0-.28-.08-.57-.17-.89-.24.27.11.52.2.75.24-.49,0-1.24.06-1.98.18l-.31-.48c-.06,0-.11,0-.17.01-.72-.18-.58.23-.19.59-.37.08-.71.17-.97.29-.58-.78-1.92.26-2.72-.57-.49.4-3.69.3-4.08,1.16-.03-.11-.24-.16.15-.17-.82-.1-1.64-.19-2.37.05l-.35-.61-1.79.82c-1.08-.37-1.53-.59-.46-1.06-2.6.73-2.11.27-4.32.99l.11-.4c-.79.02-2.05.55-2.53.22-1.77-.75-8.75-.1-13.29-.8.88,1.17-2.11-.52-2.29.38-.26-.28-.9-.43-.16-.67-2.32.27-3.48-.44-5.08.32-.27-.28.5-.4.26-.57-.19.06-.74.24-.98.08-.24-.16.34-.23.71-.35-2.37.05-2.61.9-2.78,1.69-1.2-.38-1.8-.32-2.66.2-.42-.26-1.11-.53.36-.63-.83-.04-5.05-.38-5.14.26-.26-.16-1.16-.05-1.37.03-1.86-.04-2.02-.1-3.84-.04l.51.1c-.37.39-.72.41-1.24.41-.25-.01-.54-.03-.85-.05-.32,0-.67.05-1.06.13l.03-.08c-1.86.09-2.22.41-2.57.57-.18.09-.34.19-.69.34-.35.14-.87.31-1.74.68l.43.3c.12.52-.58.8-1.5,1.27-.91.46-2,1.22-2.45,2.21l.67-.44c-.1.28-.34.52-.64.76-.29.25-.66.49-1.05.75-.36.27-.75.56-1.08.85-.32.3-.57.61-.71.9-.18.23.01-.46.09-.85-.89,1.48-.69,1.68-.47,1.73.25.07.57.06.4,1.24-.4.39-.76-.75-1.08.93-.41,1.11,1.03,4.3.36,6.22.26-.42.52-.83.72.13.02.37-.03.8-.1,1.26-.04.53-.15,1.1-.14,1.67-.01,1.14.21,2.3.88,2.87,0,.23-.03.33-.09.36.15.29.36.67.62,1.06.23.41.53.82.84,1.2.61.77,1.3,1.38,1.72,1.49-.28.99,1.37,2.34,3.06,3.04,1.69.74,3.32.93,3.12,1.65,1.27.36,2.67.44,3.92.43l-.09.16c2.21.1,2.99-.27,3.77-.63.51.1.14.25.1.33,3.23.31,3.55.24,6.26-.52l.28.5c.73-.29,4.67.78,7.83.2-.03.06-.1.15-.35.22,3.56-.58,8.53,1.37,9.83-.43l2.35-.44c-3.04-.14.45-.78-.8-1.08,1.2-.11,3.09.54,1.62.64l-.23-.09c-.54.94,3.78.33,3.7.97,5.98-.05,11.82.47,17.42.51l-.65-.73,1.96.04c.51.17.69.57-.71.54.73.41,2.34-.35,2.38-.51,2.73.3-1.07.85-.23.87l1.14-.05-.26-.09c.92-.3,1-.62,2.68-.58,1.06.15.54.45.96.48,0,.05.14.08.64.02l2.46.06-.98-.58c1.09-.28,2.32.03,1.18-.62,1.67,1.01,9.19.36,10.21.68,1.53-.42,3.04-.41,4.91-.36-.46-.12-.74-.77.87-.69-.59,1.34,2.95.58,4.26,1.55-1.16-.64,4.59-.16,2.76-1.07,1.35.11.08.5,1.1.82,3.2-.52,7.06.34,11.02.16.06-.18-.6-.44.25-.71l2.09.88c.78-.09.72-1.02,2.15-.41-.2-.15-.5-.37.02-.43,7.76.86,15.85-.7,23.73.91-1.07-.34-.36-.37.46-.39-.53-.08.01-.43-.09-.67l3.3.66c.6-.66,3.54-.04,3.88-.68l-1.04.11c1.39-.75-1.94-1.66-1.74-2.62-1.56.85-4.1-1.26-6.65-.04-.56-.2.48-.31.18-.53-.65.41-1.43.5-2.88.31l.16-.1c-4.07.1-5.81-.3-10.38-.57l.34.47c-.98-.06-1.19-.21-1.65-.33-1.13.72,2.76.04,1.73.83-1.3-.96-6.92-.01-7.8-1.11-1.51,0,.44.55-1.07.54l-.4-.3-.38.38c-.99-.06-1.49-.43-1.53-.68.24.03.68-.07.94-.09-1.28-.35-3.62.12-4.06,0l1.45.18c-4.12.28-9.15-.11-13.13.49l.3.22c-3.04.41-2.44-.25-5.77-.05l.12-.05c-.67.22-1.56.34-2.47.31.84-.26-1.59-.51-.48-.8-3.3.44-1.63.35-3.81,1.18l-.5-.37c-.74.34-.8.51-2.47.61,1.37-.32-1.06-.56.47-.99-3.5-.81-5.19.82-6.8-.37-1.61,1.03,3.03.57,2.13.79.75.34-1.33.77-2.42.66-1.12-.02-1.9-1.31-4.71-1.29.28,0,.3-.07.58-.07-1.05-.26-2.06.35-3.35-.07-.72.62-1.68-.04-1.88.76l2.58-.18c-1.46.21-2.83,1.13-5.24.68.19-.16.9-.37,1.4-.49-.7-.23-1.36.15-2.09-.09.21-.79,3.13-.17,4.7-.78-.76-.33-2.96.57-2.18-.28-1.13,1.09-2.77-.14-4.67.7l.13-.47c-.3.07-.93.3-1.48.29l1-.62c-1.54.52-2.97-.46-4.45-.17,3.1-.01.69.57,2,.92-3.82.64-2.2-1.24-6.47-1.01.58-.07,2.17.28,1.27.5-.81-.1-1.89-.28-2.39-.53-2.83.1.43.49-.77.78-.96-.58-1.39.24-2.63.42v-.48c-3.24-.31-.86,1.01-3.77.63l1.23-.67-1.51.17.31-.55c-1.65.41-2.16.3-3.78.15.38.34-.21.88-1.64.89-.97-.29.55-.46-1.48-.39.46-.3.96-.68,1.84-.24.09-.16.45-.3.54-.46-1.05-.33-2.64-.07-3.37-.07.28.02.62.04.79.11l-2.94.67c-.46-.18-.1-.33.27-.47-.59.05-1.01.27-1.88.32.23-.39.17-.8,1.41-.98l-2.8.44c-.19-.17-1.44-.47-1.07-.61-1.55-.23-3.81.76-5.86.46-.11.08-.32.15-.76.2-1.93-.09-3.65-.57-5.94-.03l-1.3-.7c-1.79.16,1.76.89-1.23,1.15-2.12.22-.79-.6-1.53-.79-.59.18-1.11.43-1.8.52-.68.06-1.48-.05-2.11-.61.51.08.88.23,1.35.31Zm-7.92-15.02c.1.43.41,1.28.13,1.6-.55-.49-.29-.87-.13-1.6Zm24.33-11.26c-.32.16-.81.08-1.37-.1.4-.04.86-.02,1.37.1Zm93.72-3.36s-.03.01-.05.02c-.96-.19-.62-.11.05-.02Zm1.99.21c.2-.07.19-.13.1-.2-.14.12-.58.13-1.09.1.14.13.4.21.99.11Zm-50.8,34.05l-.39-.13c.87-.14.63-.01.39.13Z"/>
        <path class="cls-5" d="m193.2,243.25c-.12-.08-.15-.17-.18-.26-.17.08-.17.17.18.26Z"/>
        <path class="cls-5" d="m193.85,268.81h.07s.06-.05.07-.08l-.14.08Z"/>
        <path class="cls-5" d="m261.95,243.53c-.41-.07-.64-.16-.79-.25-.02.12.16.22.79.25Z"/>
        <path class="cls-5" d="m303.25,238.62l-1.27.13c.62-.02.84.08,1.15.16-.03-.11-.27-.28.13-.28Z"/>
        <path class="cls-5" d="m314.29,241.61c.19-.06.39,0,.58-.07l-.05-.22c-.79.01-1.35.2-.53.29Z"/>
        <path class="cls-5" d="m304.43,240.22c.1.41.9.27,1.79.19-.05,0-.1,0-.16,0,.26-.57-.69-.38-1.63-.19Z"/>
        <path class="cls-5" d="m306.42,240.4c.27-.02.56-.03.82-.01.1-.23-.33-.05-.82.01Z"/>
        <path class="cls-5" d="m295.24,239.17c.42.1.27-.52.5-.35.47-.52-2.82.62-.5.35Z"/>
        <polygon class="cls-5" points="305.15 241.56 304.83 241.06 304.33 241.46 305.15 241.56"/>
        <path class="cls-5" d="m298.11,241.19l1.42.14c-.02-.08.16-.13.38-.17-.88-.02-1.84-.12-1.81.03Z"/>
        <path class="cls-5" d="m299.92,241.16c.46,0,.89,0,1.15-.08-.25,0-.78.02-1.15.08Z"/>
        <polygon class="cls-5" points="303.2 241.71 302.78 241.61 301.78 241.57 303.2 241.71"/>
        <path class="cls-5" d="m282.8,241.1l-1.55.14c-.16.17.27.28.84.21.37-.12.95-.19.71-.35Z"/>
        <path class="cls-5" d="m287.5,242.47c-.42-.1-.45-.22-.69-.38l-.05.62.73-.24Z"/>
        <path class="cls-5" d="m282.97,242.61c-.15.17-2.26.49-.29.46.16-.17,1.71-.31.29-.46Z"/>
        <polygon class="cls-5" points="259.55 241.83 259.95 241.82 259.89 240.8 259.55 241.83"/>
        <path class="cls-5" d="m238.91,244.26c1.84.24.44-.63,2.1-.32.43-.24-1.36-.25-.92-.46-1.11.25-1.7.11-1.18.78Z"/>
        <path class="cls-5" d="m240.09,243.48c.18-.04.37-.09.57-.15-.32.06-.47.11-.57.15Z"/>
        <polygon class="cls-5" points="314.24 274.01 315.42 274.22 314.66 273.88 314.24 274.01"/>
        <path class="cls-5" d="m316.51,273.26l.28.65.71-.59c-.27.03-.79.08-.99-.06Z"/>
        <path class="cls-5" d="m174.27,251.47l-.14-.1c-.18.09-.29.27-.36.68.14-.21.33-.39.5-.57Z"/>
        <path class="cls-5" d="m175.03,264.54l-.09-.19c-.1.22-.2.44-.27.66l.36-.47Z"/>
        <path class="cls-5" d="m184.21,267.8c-.55-.03-1.21.11-1.74.08,1.18-.1,1.89.65,1.74-.08Z"/>
      </g>
    </g>
    <g>
      <rect class="cls-1" x="165.27" y="223.25" width="81.8" height="30" rx="12" ry="12" transform="translate(-105.97 195.41) rotate(-41.31)"/>
      <g>
        <path class="cls-5" d="m239.59,232.07c-.28.22.09.45.1.54.39-.5-.18-.61-.1-.54Z"/>
        <polygon class="cls-5" points="242.17 226.88 242.28 227.04 242.21 226.13 242.17 226.88"/>
        <path class="cls-5" d="m243.31,221.85c-.69.44-.03,1.87-.51,2.74l-.19.11c.16.18.29.36.44.55.24-1.14.06-2.63.26-3.4Z"/>
        <path class="cls-5" d="m244.64,218.83c-.24.24-.34-.61.03.72.03-.07.04-.09.05-.14-.02-.12-.05-.29-.08-.58Z"/>
        <path class="cls-5" d="m244.73,219.41c.1.6.18-.43,0,0h0Z"/>
        <path class="cls-5" d="m243.95,216.72l.46.7c.11-.2-.05-.92.14-.69-.4-.76-.51-.52-.59,0Z"/>
        <path class="cls-5" d="m243.19,216.21l.24.34c.04-.09.02-.2-.24-.34Z"/>
        <path class="cls-5" d="m243.91,217.29c-.15-.26-.29-.51-.47-.75-.07.15-.28.22.21.34-.22,0,.02.09.26.4Z"/>
        <path class="cls-5" d="m243.93,217.78c-.03.46-.03,1.01-.43.33.36,1.39.86,1.12.43-.33Z"/>
        <path class="cls-5" d="m242.58,221.57l-.22.5c.08.15.14.3.21.45-.07-.22.23-.98.01-.95Z"/>
        <path class="cls-5" d="m241.92,212.14c-.15.05-.15.46-.28.62.17.11.32.25.47.38-.06-.32-.35-.82-.2-.99Z"/>
        <path class="cls-5" d="m241.64,212.76l-.74-.51c.45.61.63.65.74.51Z"/>
        <path class="cls-5" d="m242.41,216.37c.33.34.67.7.95,1.09-.3-.48-.7-.91-1.05-1.32l.1.23Z"/>
        <polygon class="cls-5" points="240.04 209.91 240.57 209.98 239.7 209.79 240.04 209.91"/>
        <path class="cls-5" d="m238.81,208.6c.42.03.1-.63.44-.51-.36-.33-.82-.48-1.24-.61.36.22.61.56.8,1.13Z"/>
        <path class="cls-5" d="m237.35,207.22c.18.1.41.18.66.26-.19-.11-.4-.21-.66-.26Z"/>
        <path class="cls-5" d="m240.13,211.23c.03-.1.14-.34-.04-.71l-.14.49c.05.07.12.14.18.21Z"/>
        <path class="cls-5" d="m239.95,211.04v-.02c-.19-.24-.32-.4-.38-.47.05.06.16.21.38.48Z"/>
        <path class="cls-5" d="m240.18,211.29s-.03-.03-.05-.05c-.01.05-.01.07.05.05Z"/>
        <path class="cls-5" d="m241.82,214.29c-.47-.3-1.2-.95-1,.03.43.12.31-.45,1-.03Z"/>
        <path class="cls-5" d="m240.01,211.9c.14.21.28.41.44.67.08-.08.1-.32.35-.2-.28-.2-.54-.34-.79-.47Z"/>
        <polygon class="cls-5" points="239.66 211.71 240.01 211.9 239.85 211.67 239.66 211.71"/>
        <path class="cls-5" d="m237.9,208.45c-.35-.12-.6-.38-.89-.66.22.38.48.74.76,1.06.14-.04.44-.06.13-.4Z"/>
        <path class="cls-5" d="m238.87,209.73s-.05-.03-.07-.04c0,.06.02.09.07.04Z"/>
        <polygon class="cls-5" points="233.53 204.74 233.55 204.85 233.6 204.8 233.53 204.74"/>
        <path class="cls-5" d="m237.76,208.96c.15.3.36.37.58.43-.19-.15-.38-.33-.57-.53-.06.02-.1.04-.01.11Z"/>
        <path class="cls-5" d="m236.31,206.41c.08.21.19.43.31.66-.04-.23-.18-.68-.31-.66Z"/>
        <path class="cls-5" d="m238.82,209.53l.05.02c0-.14-.03-.1-.05-.02Z"/>
        <path class="cls-5" d="m238.82,209.53c-.16-.08-.32-.11-.48-.15.16.13.31.23.46.31,0-.05,0-.11.02-.16Z"/>
        <path class="cls-5" d="m231.06,206.5c.2-.32,1.2-.28,1.56.53.76.16,1.18-1.13.93-2.18-.12.14-.19.24-1.06.04.2.3,1.3,1.41.53,1.32-.98-.41-.67-.56-1.03-1.01.08.33-.3.31-.71.35-.42.05-.84.13-.88.51.29.04.6.05.89.12-.04.11-.39.12-.23.33Z"/>
        <path class="cls-5" d="m234.89,205.87l.31.2c-.28-.31-.38-.66-.68-1.22-.63-.2-.81-.14-.92-.05.49.35.99.69,1.42,1.11l-.13-.03Z"/>
        <path class="cls-5" d="m236.39,207.2c-.52.08-1.22-.37-1.2.32.7.68.78.27,1.27.55-1.14-1.08.53.2-.1-.83.31.21.48.37.65.54-.14-.25-.27-.49-.4-.73,0,.02,0,.03,0,.05h0s0,0,0,0c.01.09,0,.13-.03.05,0,0-.02-.01-.03-.02-.05.03-.11.04-.17.05-.28-.42.03-.13.17-.05.02-.01.04-.01.06-.03h0c-.47-.37-.91-.75-1.42-1.05.25.27.59.58,1.18,1.13Z"/>
        <path class="cls-5" d="m239.6,214.18c0-.06.03-.08.05-.1-.1-.04-.15-.05-.05.1Z"/>
        <path class="cls-5" d="m239.42,213.54c.11.05.31.01.49.32.09.32-.17.12-.27.22.22.09.7.43.46-.25l-.11-.05c-.13-.29-.22-.67-.27-.99-.04-.3-.04-.51.02-.5-.18.38-.28.68-.32,1.25Z"/>
        <path class="cls-5" d="m237.82,210.42l-.96-.77.13.71.15-.17c.39.57.5.28.68.23Z"/>
        <path class="cls-5" d="m233.5,204.47l.4-.28c-.35.01-.72.08-1.07.13l.66.15Z"/>
        <polygon class="cls-5" points="231.78 203.64 232 203.31 231.44 203.33 231.78 203.64"/>
        <path class="cls-5" d="m174.5,260.42l.24.18c-.1-.09-.18-.14-.24-.18Z"/>
        <path class="cls-5" d="m173.58,258.59l-.2.02c.14.05.22.06.2-.02Z"/>
        <path class="cls-5" d="m197.58,222.51c-.63.06-1.45.02-1.1.31l.41.22c.22-.3.46-.44.7-.53Z"/>
        <path class="cls-5" d="m179.43,241.91c.06,0,.13,0,.2,0,0-.19,0-.38-.01-.54-.06.17-.12.35-.19.54Z"/>
        <path class="cls-5" d="m180.34,243.5l-.7.24c.18-.03.41-.1.7-.24Z"/>
        <path class="cls-5" d="m183.66,268.28l.42-.33c-.45-.14-.32.13-.42.33Z"/>
        <path class="cls-5" d="m214.56,207.74c-.45.17-.76.35-1.01.54.57-.17,1.14-.17,1.01-.54Z"/>
        <path class="cls-5" d="m170.05,261.96c.18.19.33.23.41.18-.21-.18-.33-.28-.41-.18Z"/>
        <path class="cls-5" d="m212.59,209.13c.09-.02.16-.05.24-.08.2-.27.41-.53.72-.77-.42.12-.84.34-.97.85Z"/>
        <path class="cls-5" d="m221.75,241.23s.08-.03.12-.04c-.03-.05-.07-.02-.12.04Z"/>
        <path class="cls-5" d="m235.79,234.71c-.09.12-.27.28-.44.43.1-.05.24-.17.44-.43Z"/>
        <path class="cls-5" d="m224.28,202.3c.4-.06.06-.05,0,0h0Z"/>
        <path class="cls-5" d="m226.22,203.94c-.08.05-.14.11-.15.21.03-.1.08-.17.15-.21Z"/>
        <path class="cls-5" d="m211.87,213.35l-.02.02c.13,0,.11,0,.02-.02Z"/>
        <path class="cls-5" d="m224.91,202.45c-.15-.04-.33-.07-.53-.09.09.03.25.06.53.09Z"/>
        <path class="cls-5" d="m224.81,202.25c.14,0,.25.01.36.02.05-.08,0-.12-.36-.02Z"/>
        <path class="cls-5" d="m223.72,202.4c.23-.05.45-.05.66-.04-.08-.02-.12-.04-.1-.06-.12.02-.29.04-.56.1Z"/>
        <path class="cls-5" d="m202,260.13s.05-.01.08-.02c.13-.36.04-.24-.08.02Z"/>
        <path class="cls-5" d="m194.04,231.62s0-.03.02-.04c-.02,0-.03.01-.05.02l.03.02Z"/>
        <path class="cls-5" d="m193.35,232.65c.03-.74.29-.88.65-1.05l-1.12-.68.47,1.73Z"/>
        <path class="cls-5" d="m178.38,264.79l-.26-.89c1.15.34,1.47,1.04,1.36.08-1.1.81-2.26-2.36-3.36-1.56l-.15-.61c.1.13.17.09.27.22-.22-1.23-1.32.01-1.89-1.03-.16-.39-.12-.74.15-.6-.24-.19-.52-.36-.74-.57-.09-.25.15-.3.23-.06-.23-.38-.48-.75-.66-1.17h.04c-.27-.1-.74-.42-.92-.61.09-.4.19.13.32,0-.17-.22-.36-.44-.52-.67.15-.2.33-.15.48,0,.17.15.32.4.36.66.56-.53.44-.62.22-.83-.17-.2-.52-.53-.17-1.29.07.22.14.44.25.64.33-.27.44-.5.51-.77.05-.26.1-.56.35-.9-.12.07-.46.42-.74.68-.29.26-.6.45-.8.06.07-.23.15-.52-.13-.97.47.01.39-.4.42-.92l.63.12c-.11-.55-.41-.57-.63-.96.2-.61.75-.58,1.17-.58.39-.87-.97.39-.7-.76.28-.34.4-.67.52-1.03.09-.38.17-.8.32-1.34.52-.37.25.32.52.25-.04-.24-.05-.47-.07-.72.09-.09.19.04.23.11.15-.47-.49-.46-.09-1.11-.17-.32.27-.41.82-.58.57-.18,1.21-.43,1.35-1.08.32-.04.16.38.39.51.75-1.36.69-1.11,1.12-2.43l1.04-.36c-.88.13-.54-.92-.21-1.83-.35,0-.66,0-.84.03l.78-1.14c.19-.03.23.23.25.57.03-.1.06-.2.08-.28.52-.14.57.3.55.8l-.62.02c0,.51.06,1.04.36,1.27.02-.11.1-.27.22-.42,0,.14.03.24.1.27.08.02.09-.18.15-.45l.7.33-.13-.26,1.61-.82c.47-1.37.59-2.88,1.89-4.42-.03.72.48.71.87,1.19-.84-.13-.97,1.23-1.84,1.81.45-.3.56,0,.52.16l.99-1.66c.3.41.54.03,1.04-.13-.93-.51.59-1.41.95-2.13.26.22.35.6-.39,1.14,1.26-.1.2-1.74,1.37-1.91-.16.15-.29.19-.24.38.19-.57,1.31-1.23,1.27-.81l-.16.15c1.19-.89,3.39-2.97,2.99-3.75.08.07.53.9.58,1.09l.1-3.89c.31.7,2.13,1.42,1.48,2.54.33-.15.74-.35,1.13-1.04-.25.08-1.15-.4-.94-.66,1.21.02.76-.09,2.05-.3-.37.12-.83-1-.38-1.35.05.19.78.82.7,1.04l.32-1.78c-.13.39.58.76,1.03.79-.26-.07.93-.79,1.14-1.13l-.62.2c1.32-.93.14-2.23,1.38-3.24,0,.3.59,1.39,1.29.96-.1-.68-.6-3.16.16-4.42l.42.07.56-.99c.07,1.09-.14,3.71-.45,4.92.62-.2.38.18,1.04-.43.44.02-.06.67-.24.86l1.7-1.23c-.51-.44.75-1.56.33-1.93l-1.24,2.02c-.51-.44-.27-2.3.92-3.19.46-.05.58,1.08.75,1.23,0-.3.76-1.26.97-1.23l-.23.68c.79-.35.42-1.56,1.59-1.73.29-.19,1.34-.02,1.12-.36-.93-.21-2.57-1.92-2.68-2.6.12-.04,1.83-.63,2.38-.61.82.08.31,1.63,1.01,1.71-.11-.15-.02-.53.03-.67.37-.12.26.53.79-.05-.35-.6,1.23-1-.1-.68.44-.65.7-.43,1.35-1.04-.51-.14-.39-1.66.06-2.31.08.16.36.22.49.24,1.22-.99,2.05-1.31,3.15-2.27.21.04.87-.28.84.14.08-.23.07-.53.4-.84,1.04-.13-.69.73.27.83-.22-.33.51-1.18.83-1.79-.55-.33-1.19.89-1.51,1.5-.56-.63-.3-2.03.58-3.33.77-.96.75.06.83-.17.95-.7,1.17-1.31,1.42-1.82.23-.54.53-.98,1.63-1.18.99.19.45.97.78,1.26-.82.59-1.55.37-2.13.79l.85-.24c-.19.33-.67.79-1.05.87.4.02,1.19-.51,2.19-.95,1-.41,2.2-.77,3.08-.65.26-.25.78-.46.51-.66-.19.03-.37.09-.55.15-.29-.17-.05-.36.18-.53.23-.16.45-.26.06-.33.38-.18.8-.42,1.27-.57.48-.11,1.02-.2,1.59,0l.15.63c0-.19-.71-.45-1.04-.25.24-.14.67.09,1.09.29.42.18.82.32,1.15,0-.23-.19-.47-.4-.72-.56.85-.21,2.09-.57,3.08-.02-.28-.73-.25,0-.81-.93.21.53-.47.28-1.12.16-.65-.16-1.24-.21-.78.31-.68-.91-1.31-.53-2.39-1.22.04.21.39.37-.57.3-.04.06-.14.14-.2.19-.03,0-.04,0-.06-.01l.05.02s-.04.04.02,0c.23.07.41.16.49.27-.22.24-.68.39-1.14.52-.46.13-.91.29-1.12.44-.54,0,.17-.27-.16-.43-.22.15-.42.34-.62.52-.16-.42-1.61-.32-.42-.93-.39.1-.77.19-1.15.34-.75-.01-1.71.34-2.15.79-.56.2-.95,1.18-.73.61-.49.4-.91.87-1.33,1.32l-.09-.08c-1.27,1.01-1.88,2.64-3.74,3.18-.31.42-.61.88-1.34,1.35l-.38-.18c-.4.53-1.74,1.01-1.68,1.5-1.22-.32-2.54,1.93-3.53,2.56l.3.41c-.62.5-1.09,1.12-1.7,1.92l.34.3c-.4.84-1.85,1.2-2.83,2.13-.04-.19.24-.38.49-.46-1.88.3-2.06,2.79-3.64,3.2-.16.36-.4.49-.66.58.02-.02.04-.05.05-.08-.03.02-.07.06-.12.09-.17.05-.35.09-.54.15.19-.02.36-.05.48-.1-.2.19-.49.51-.73.87l-.45-.24s-.04.05-.06.07c-.42.14-.1.39.31.52-.11.2-.19.4-.22.58-.76-.36-.65.92-1.54.59.06.49-1.37,1.61-.98,2.4-.08-.07-.21-.03-.05-.19-.41.23-.83.47-.98.92l-.55-.33-.22,1.29c-.71.13-1.04.13-.9-.63-.63,1.52-.72,1-1.19,2.36l-.22-.34c-.33.31-.52,1.18-.94,1.11-1.25.1-3.8,3.2-6.2,4.38,1.15.55-1.24.4-.73,1.15-.29-.11-.67.01-.51-.44-.81,1.07-1.77.98-1.95,2.15-.3-.11-.05-.49-.26-.52-.04.11-.16.46-.37.42-.21-.03,0-.3.07-.53-.98.92-.52,1.65-.07,2.31-.76.17-.98.43-1.01,1.15-.35-.04-.83.02-.26-.6-.38.28-2.41,1.61-2.02,2.12-.22-.02-.52.4-.57.54-.82.67-.92.69-1.66,1.41l.28-.11c.21.83-.54.73-1.13,1.43l-.04-.07c-.88.61-1,.84-1.07,1.06-.07.23-.18.4-.99,1.14l.47.14c.4.35.06.64-.41,1.04-.43.42-1.02.97-.99,1.62l.39-.32c.08.36-.41.67-.91,1.03-.49.36-1.08.76-1.18,1.12-.1.14-.12-.27-.13-.5-.86,1.81.57.34.57,1.71-.34.24-.85-.39-.94.57-.15.24.12.95.43,1.71.13.38.32.77.42,1.16.09.39.14.76.08,1.11.18-.34.36-.65.72-.11.15.45.13,1.12.23,1.78.09.66.37,1.26.91,1.45,0,.14-.03.21-.08.25.3.25.66.73,1.11,1.1.43.36.87.69,1.16.66-.85,1.54,3.22,2.45,2.07,3.45l1.37,1.43-.16.06c.93,1.15,1.61,1.18,2.2,1.21.18.29-.08.25-.15.3.74.74,1.22,1.12,1.73,1.3.5.21,1.05.23,1.97.19v.53c.27-.09.89.4,1.81.73.9.38,2.1.59,3.14.3-.02.06-.06.15-.23.22,1.17-.29,2.58-.1,3.85-.28,1.26-.14,2.3-.59,2.26-1.59.39-.35.75-.73,1.07-1.13-1.65.89-.18-.81-.98-.66.26-.23.71-.34,1.01-.37.3-.03.46.08.14.39h-.17c.13.49.66.22,1.18-.15.55-.36.94-.74,1.16-.49,2.52-2.28,5.35-4.07,7.77-6.15l-.76-.31.86-.7c.33-.06.67.17.06.67.59.04.77-1.14.68-1.27,1.36-.8.11,1.04.48.74l.45-.47-.17.03c.2-.57.02-.84.76-1.44.55-.29.53.13.73,0,.03.04.11,0,.29-.22l1.09-.88-.8-.06c.28-.62,1.01-.85.09-.91,1.38.13,4.16-3.17,4.8-3.32.37-.89,1.02-1.45,1.85-2.11-.28.08-.83-.3-.08-.84.63,1.23,1.64-.67,2.84-.43-.92-.04,1.85-1.84.47-1.83.65-.42.37.35,1.01.2,1.02-1.59,3.23-2.39,4.81-4.01-.09-.16-.55-.11-.36-.62l1.47-.12c.28-.36-.36-1.03.65-1.11-.18-.04-.46-.09-.27-.33,3.87-2.26,6.3-6.47,10.72-8.21-.68.14-.4-.15-.06-.46-.28.14-.28-.33-.48-.47l1.84-.74c-.18-.72,1.48-1.36,1.21-1.96l-.37.48c.1-1.08-1.92-.52-2.47-1.31-.1,1.22-2.58.59-2.86,2.46-.37.06,0-.41-.27-.47,0,.55-.28.91-1.02,1.31v-.14c-1.67,1.6-2.68,1.95-4.8,3.46l.46.23c-.46.32-.65.29-.92.37,0,.96,1.2-1,1.29-.02-1.19-.24-2.96,2.58-4.06,2.09-.65.56.55.25-.1.81l-.37-.07.09.43c-.46.32-.92.23-1.1.06.12-.07.24-.31.34-.42-.78.22-1.47,1.45-1.73,1.53l.74-.41c-1.57,1.75-3.98,3.35-5.28,5.29l.28.05c-1.02,1.45-1.2.73-2.5,2.12l.02-.09c-.14.42-.44.84-.85,1.16.19-.51-1.01.21-.73-.42-1.11,1.57-.47.87-.85,2.31l-.46-.09c-.09.53,0,.69-.65,1.38.37-.75-.83-.03-.45-.92-2.03.7-1.68,2.56-3.14,2.27,0,1.37,1.67-.71,1.43-.2.54-.03-.06,1.07-.6,1.41-.49.4-1.68-.27-2.86.79.12-.1.08-.17.2-.27-.62.2-.65,1.04-1.48,1.2.1.74-.74.6-.3,1.27l.98-1.1c-.49.7-.46,1.91-1.78,2.48-.03-.19.14-.62.27-.89-.45.09-.48.62-.95.72-.43-.67,1.22-1.3,1.49-2.35-.54.03-.89,1.54-1.12.6.24,1.24-1.27.93-1.53,2.27l-.26-.4c-.08.17-.2.57-.44.77l.02-.84c-.31.97-1.57.77-2.01,1.54,1.31-1.17.67.17,1.46-.06-1.21,1.91-1.76-.11-3.43,1.66.2-.27,1.11-.6.87-.1-.41.23-.99.5-1.37.5-1.14,1.14.51.2.19.88-.79-.07-.44.7-.85,1.3l-.32-.36c-1.57.96.27,1.12-1.12,1.76.03-.31.04-.61.05-.89l-.45.58-.21-.53c-.38.74-.65.82-1.38,1,.3.21.32.87-.35,1.13-.55-.1.08-.51-.81-.12.13-.34.19-.8.73-.52-.02-.16.08-.35.05-.51-.28-.07-.56.01-.8.14-.24.12-.48.23-.63.28.12-.02.28-.03.37.01l-.56.5c-.2.15-.4.3-.62.45-.24-.14-.09-.32.05-.49-.26.1-.41.36-.83.42.07-.41.02-.78.52-1.04-.37.21-.77.37-1.18.53-.09-.17-.62-.48-.46-.62-.32-.1-.72,0-1.18.15-.45.08-.98.17-1.36-.13-.07.06-.18.1-.39.1-.79-.43-1.21-1.11-2.32-1.27-.03-.29-.02-.61,0-.9-.33-.18-.34.1-.4.37-.06.26-.15.5-.78.15-.85-.55.17-.69.08-1.06-.27,0-.76-.17-1.19-.42-.43-.25-.81-.63-.96-1.23.34.19.45.47.72.69Zm-5.67-9.17c.12.2.45.55.19.72-.57-.16-.32-.38-.19-.72Zm8.72-14.24c-.03.24-.29.36-.65.44.15-.18.35-.34.65-.44Zm38.69-37.58s-.01.02-.02.03c-.66.12-.43.08.02-.03Zm1.32-.29c.11-.1.08-.16,0-.21-.06.14-.33.26-.66.35.14.08.32.1.66-.14Zm-14.63,56.7l-.25.05c.28-.43.26-.25.25-.05Z"/>
        <path class="cls-5" d="m180.24,243.31c-.11-.02-.18-.07-.25-.13-.02.12.04.2.25.13Z"/>
        <path class="cls-5" d="m183.58,268.34h.03s.04-.03.05-.06l-.08.06Z"/>
        <path class="cls-5" d="m209.75,217.75c-.22.1-.38.12-.5.11.07.1.21.1.5-.11Z"/>
        <path class="cls-5" d="m228.53,202.23c-.3-.03-.6,0-.9,0,.43.03.57.14.77.26,0-.11-.14-.31.14-.26Z"/>
        <path class="cls-5" d="m233.6,207.79c.12.02.18.14.29.16l.13-.19c-.36-.29-.72-.35-.42.03Z"/>
        <path class="cls-5" d="m228.98,203.96c-.03.4.47.39,1.03.49-.03,0-.06-.01-.09-.03.33-.48-.31-.52-.93-.46Z"/>
        <path class="cls-5" d="m230.13,204.47c.17.03.34.07.49.16.14-.19-.18-.13-.49-.16Z"/>
        <path class="cls-5" d="m223.02,202.83c.3.05.08-.54.28-.41.12-.28-.35-.04-.63.2-.27.27-.39.49.35.21Z"/>
        <path class="cls-5" d="m229.07,205.36l-.05-.53-.38.33c.14.07.29.12.43.2Z"/>
        <path class="cls-5" d="m225.09,204.6c.28.02.56.05.83.11-.01-.08.09-.13.22-.17-.51-.04-1.09-.1-1.06.05Z"/>
        <path class="cls-5" d="m226.14,204.54c.27.02.52,0,.68-.06-.14-.02-.46,0-.68.06Z"/>
        <path class="cls-5" d="m227.96,205.26c-.07-.05-.14-.11-.22-.15l-.56-.1c.26.08.53.14.78.25Z"/>
        <path class="cls-5" d="m217.04,208.1l-.57.69c.05.19.3.11.5-.16.08-.23.28-.5.07-.53Z"/>
        <path class="cls-5" d="m219.93,207.58c-.24.03-.32-.05-.52-.12l.33.53.19-.4Z"/>
        <path class="cls-5" d="m218.11,209.18c.05.19-.64,1.22.18.45-.05-.19.52-.88-.18-.45Z"/>
        <polygon class="cls-5" points="207.6 217.37 207.77 217.21 207.07 216.47 207.6 217.37"/>
        <path class="cls-5" d="m200.41,226.94c.95-.51-.23-.64.68-1.03.03-.34-.74.32-.69,0-.31.61-.65.72.01,1.03Z"/>
        <path class="cls-5" d="m200.4,225.91c.05-.1.1-.2.14-.33-.1.17-.13.26-.14.33Z"/>
        <polygon class="cls-5" points="238 233.5 238.65 233.21 238.1 233.24 238 233.5"/>
        <path class="cls-5" d="m238.47,232.08l.55.38-.08-.71c-.09.12-.28.36-.46.32Z"/>
        <path class="cls-5" d="m174.05,254.22l-.15-.05c-.17.06-.21.17-.25.4.12-.12.27-.24.4-.35Z"/>
        <polygon class="cls-5" points="175.4 260.58 175.34 260.48 175.02 261.02 175.4 260.58"/>
        <path class="cls-5" d="m180.71,265.48c-.13-.18-.39-.25-.55-.45.43.28.07,1.01.55.45Z"/>
      </g>
    </g>
    <g>
      <rect class="cls-1" x="191.17" y="234.23" width="30" height="81.8" rx="12" ry="12" transform="translate(-134.16 226.37) rotate(-45)"/>
      <g>
        <path class="cls-5" d="m214.49,308.08c-.24-.27-.44.11-.53.13.52.35.6-.22.53-.13Z"/>
        <polygon class="cls-5" points="219.83 310.32 219.68 310.44 220.58 310.31 219.83 310.32"/>
        <path class="cls-5" d="m224.92,311.14c-.48-.66-1.87.09-2.77-.33l-.12-.18c-.17.17-.34.32-.52.47,1.16.17,2.63-.1,3.41.04Z"/>
        <path class="cls-5" d="m228.02,312.27c-.25-.23.59-.38-.72.08.07.02.1.03.14.04.12-.03.29-.07.58-.12Z"/>
        <path class="cls-5" d="m227.44,312.39c-.59.14.44.15,0,0h0Z"/>
        <path class="cls-5" d="m230.08,311.44l-.67.5c.21.1.91-.11.7.09.73-.45.49-.54-.03-.59Z"/>
        <path class="cls-5" d="m230.55,310.66l-.32.26c.09.03.2.01.32-.26Z"/>
        <path class="cls-5" d="m229.51,311.44c.25-.16.49-.32.71-.52-.15-.06-.24-.27-.33.23-.01-.22-.09.03-.39.29Z"/>
        <path class="cls-5" d="m229.02,311.49c-.46,0-1.01.04-.36-.41-1.36.45-1.06.93.36.41Z"/>
        <path class="cls-5" d="m225.15,310.39l-.51-.19c-.14.09-.29.16-.44.23.22-.08.99.17.95-.05Z"/>
        <path class="cls-5" d="m234.52,309.12c-.06-.15-.47-.12-.63-.24-.1.18-.22.34-.35.5.32-.08.8-.4.98-.26Z"/>
        <path class="cls-5" d="m233.88,308.88l.46-.77c-.58.49-.61.67-.46.77Z"/>
        <path class="cls-5" d="m230.33,309.88c-.32.35-.65.71-1.03,1.02.46-.33.86-.76,1.25-1.14l-.23.11Z"/>
        <polygon class="cls-5" points="236.63 307.1 236.59 307.64 236.72 306.75 236.63 307.1"/>
        <path class="cls-5" d="m237.85,305.79c0,.42.64.06.54.41.31-.38.43-.85.53-1.28-.19.37-.52.65-1.07.87Z"/>
        <path class="cls-5" d="m239.14,304.24c-.09.19-.15.42-.21.68.1-.2.18-.41.21-.68Z"/>
        <path class="cls-5" d="m235.31,307.28c.1.03.35.12.7-.09l-.5-.1c-.06.06-.13.13-.2.19Z"/>
        <path class="cls-5" d="m235.5,307.08h.02c.22-.2.38-.35.44-.41-.06.05-.2.17-.46.41Z"/>
        <path class="cls-5" d="m235.26,307.33s.03-.03.05-.05c-.05-.01-.07,0-.05.05Z"/>
        <path class="cls-5" d="m232.37,309.16c.27-.49.87-1.25-.09-.99-.1.43.47.28.09.99Z"/>
        <path class="cls-5" d="m234.64,307.2c-.2.15-.39.31-.64.48.09.07.32.08.22.33.18-.3.31-.56.42-.82Z"/>
        <polygon class="cls-5" points="234.8 306.84 234.64 307.2 234.86 307.02 234.8 306.84"/>
        <path class="cls-5" d="m237.94,304.87c.1-.36.34-.62.6-.93-.36.25-.71.53-1.01.83.05.14.09.44.41.1Z"/>
        <path class="cls-5" d="m236.73,305.92s.02-.05.03-.07c-.06,0-.09.02-.03.07Z"/>
        <polygon class="cls-5" points="241.37 300.27 241.26 300.3 241.32 300.35 241.37 300.27"/>
        <path class="cls-5" d="m237.43,304.77c-.29.17-.35.38-.39.6.14-.2.3-.4.5-.6-.02-.06-.05-.09-.11,0Z"/>
        <path class="cls-5" d="m239.88,303.15c-.21.1-.42.22-.63.35.23-.05.67-.22.63-.35Z"/>
        <path class="cls-5" d="m236.92,305.86l-.02.05c.14-.01.1-.03.02-.05Z"/>
        <path class="cls-5" d="m236.92,305.86c.07-.16.09-.33.12-.49-.12.16-.21.33-.28.48.05,0,.11,0,.16,0Z"/>
        <path class="cls-5" d="m239.45,297.92c.33.18.35,1.18-.43,1.59-.11.77,1.21,1.11,2.24.79-.15-.11-.25-.18-.11-1.06-.29.21-1.33,1.39-1.29.61.35-1.01.51-.7.94-1.09-.32.1-.33-.28-.39-.68-.08-.41-.18-.83-.56-.84-.02.29-.01.6-.06.89-.11-.03-.15-.38-.34-.2Z"/>
        <path class="cls-5" d="m240.32,301.71l-.18.32c.29-.3.63-.42,1.17-.76.16-.64.09-.82,0-.92-.32.51-.63,1.03-1.02,1.49l.03-.14Z"/>
        <path class="cls-5" d="m239.09,303.28c-.11-.51.29-1.25-.4-1.17-.64.74-.22.79-.47,1.3,1-1.21-.17.54.82-.15-.19.32-.34.5-.5.69.24-.15.47-.3.7-.44-.02,0-.03,0-.05.01h0s0,0,0,0c-.09.02-.13.01-.05-.03,0,0,.01-.02.02-.03-.03-.05-.05-.11-.06-.17.4-.31.14.02.06.17.01.02.02.04.03.06h0c.33-.49.69-.96.95-1.49-.26.27-.54.62-1.06,1.25Z"/>
        <path class="cls-5" d="m232.34,306.94c.06,0,.08.02.1.04.04-.1.04-.16-.1-.04Z"/>
        <path class="cls-5" d="m232.96,306.72c-.04.12,0,.31-.29.51-.31.11-.13-.16-.24-.25-.07.23-.38.73.28.45l.04-.12c.28-.15.66-.26.97-.33.3-.06.51-.07.5-.02-.39-.16-.7-.24-1.26-.24Z"/>
        <path class="cls-5" d="m235.98,304.92l.71-1-.7.17.18.14c-.55.42-.25.51-.19.7Z"/>
        <path class="cls-5" d="m241.64,300.23l.3.39c-.03-.35-.12-.72-.19-1.06l-.11.67Z"/>
        <polygon class="cls-5" points="242.35 298.45 242.7 298.66 242.64 298.09 242.35 298.45"/>
        <path class="cls-5" d="m182,244.95l-.16.25c.09-.11.13-.18.16-.25Z"/>
        <path class="cls-5" d="m183.77,243.91l-.04-.2c-.04.14-.04.23.04.2Z"/>
        <path class="cls-5" d="m221.32,265.54c-.11-.63-.11-1.44-.38-1.08l-.19.42c.31.2.47.43.57.66Z"/>
        <path class="cls-5" d="m200.8,248.68c0,.06,0,.13.01.2.19-.02.37-.03.54-.05-.17-.05-.36-.1-.55-.15Z"/>
        <path class="cls-5" d="m199.27,249.69l-.28-.68c.04.18.13.4.28.68Z"/>
        <path class="cls-5" d="m174.75,254.59l.36.4c.11-.46-.15-.31-.36-.4Z"/>
        <path class="cls-5" d="m237.16,281.54c-.2-.44-.4-.74-.6-.97.2.56.25,1.13.6.97Z"/>
        <path class="cls-5" d="m180.18,240.6c-.18.19-.21.35-.15.42.17-.22.26-.35.15-.42Z"/>
        <path class="cls-5" d="m235.64,279.66c.02.09.06.16.09.24.28.18.56.37.82.67-.15-.41-.39-.82-.91-.91Z"/>
        <path class="cls-5" d="m204.2,290.86s.04.08.04.12c.05-.03.02-.07-.04-.12Z"/>
        <path class="cls-5" d="m211.6,304.46c-.12-.08-.29-.25-.45-.41.06.1.19.23.45.41Z"/>
        <path class="cls-5" d="m243.21,290.89c.09.4.06.06,0,0h0Z"/>
        <path class="cls-5" d="m241.7,292.93c-.05-.07-.12-.13-.22-.13.11.02.17.07.22.13Z"/>
        <path class="cls-5" d="m231.38,279.22l-.02-.02c.01.13,0,.11.02.02Z"/>
        <path class="cls-5" d="m243.1,291.52c.03-.16.05-.34.05-.53-.02.09-.04.25-.05.53Z"/>
        <path class="cls-5" d="m243.29,291.42c0,.14,0,.25,0,.36.08.04.12,0,0-.36Z"/>
        <path class="cls-5" d="m243.08,290.34c.07.22.08.44.08.66.02-.08.04-.12.05-.1-.02-.12-.05-.28-.13-.55Z"/>
        <path class="cls-5" d="m184.06,272.37s.02.05.02.08c.37.11.24.03-.02-.08Z"/>
        <path class="cls-5" d="m212,262.59s.03,0,.04.01c0-.01-.02-.03-.02-.05l-.02.03Z"/>
        <path class="cls-5" d="m210.93,261.97c.74-.02.9.23,1.09.58l.6-1.16-1.7.58Z"/>
        <path class="cls-5" d="m177.89,249.1l.87-.32c-.26,1.17-.94,1.53,0,1.36-.88-1.04,2.21-2.41,1.34-3.45l.59-.19c-.12.1-.08.18-.2.28,1.22-.3-.1-1.31.9-1.95.38-.18.73-.17.61.11.17-.25.32-.54.53-.78.24-.11.3.13.07.23.36-.25.72-.53,1.12-.73v.04c.09-.28.37-.77.55-.96.41.07-.12.19.02.32.21-.18.41-.39.64-.56.21.13.17.32.02.48-.14.18-.38.34-.63.4.56.52.65.4.84.17.19-.18.49-.55,1.28-.25-.21.09-.43.17-.63.29.29.31.53.41.8.46.27.04.57.06.92.3-.08-.11-.44-.43-.73-.69-.28-.27-.49-.57-.11-.8.24.05.53.11.96-.19.02.47.42.36.95.36l-.08.64c.54-.15.54-.45.92-.69.63.16.63.71.65,1.14.89.33-.45-.95.71-.75.36.26.69.35,1.07.45.39.07.81.12,1.36.23.4.5-.3.27-.21.54.24-.06.47-.08.72-.12.1.09-.03.19-.09.24.48.12.43-.52,1.11-.16.31-.19.43.25.63.78.21.56.51,1.18,1.16,1.28.06.31-.37.19-.49.42,1.4.66,1.15.62,2.5.96l.43,1.02c-.19-.87.89-.59,1.81-.33-.02-.35-.04-.66-.08-.83l1.19.7c.04.19-.21.25-.55.28.1.03.2.05.28.07.17.51-.27.59-.76.6l-.06-.62c-.51.04-1.03.13-1.25.44.11,0,.28.08.43.19-.14.01-.24.04-.26.11-.02.08.18.08.45.12l-.29.72.25-.15.92,1.55c1.39.38,2.91.4,4.53,1.6-.72.02-.68.53-1.14.95.08-.85-1.29-.89-1.92-1.72.33.43.04.56-.13.53l1.72.88c-.39.33,0,.54.2,1.03.45-.97,1.44.5,2.19.81-.2.27-.57.39-1.16-.32.18,1.25,1.75.09,2,1.24-.16-.15-.21-.27-.4-.21.58.16,1.31,1.23.89,1.22l-.16-.15c.96,1.13,3.18,3.19,3.94,2.75-.07.09-.86.59-1.05.65l3.89-.16c-.68.35-1.28,2.21-2.44,1.64.18.32.4.72,1.11,1.06-.1-.24.32-1.17.6-.99.06,1.21.14.75.43,2.03-.14-.37.95-.89,1.33-.46-.18.06-.77.83-1,.77l1.8.21c-.39-.11-.72.63-.72,1.08.05-.26.85.88,1.2,1.07l-.24-.61c1.01,1.25,2.24,0,3.32,1.17-.3.03-1.35.68-.88,1.35.67-.15,3.12-.8,4.43-.12l-.04.42,1.03.5c-1.09.14-3.71.1-4.94-.13.24.61-.16.39.5,1.01,0,.44-.68-.01-.88-.19l1.34,1.62c.41-.54,1.61.65,1.95.2l-2.1-1.11c.41-.54,2.28-.42,3.24.71.08.46-1.05.65-1.18.83.3-.03,1.31.68,1.29.89l-.7-.19c.4.76,1.58.32,1.83,1.47.21.27.11,1.33.43,1.09.15-.94,1.75-2.69,2.42-2.84.05.12.75,1.79.76,2.33-.03.82-1.61.42-1.64,1.12.14-.12.52-.06.67-.02.14.36-.51.3.1.79.57-.39,1.08,1.16.67-.15.68.4.47.67,1.13,1.28.11-.51,1.63-.49,2.31-.09-.15.09-.19.37-.21.5,1.06,1.15,1.44,1.96,2.46,3-.02.21.33.85-.08.85.23.06.53.04.86.34.2,1.03-.77-.64-.81.33.32-.24,1.21.44,1.84.71.29-.57-.96-1.13-1.59-1.41.59-.6,2.01-.43,3.36.37,1,.71-.01.76.22.82.76.9,1.38,1.08,1.91,1.3.55.2,1.02.46,1.29,1.55-.12,1-.94.51-1.21.86-.64-.78-.47-1.52-.92-2.08l.29.84c-.34-.17-.83-.62-.93-.99.01.4.58,1.16,1.09,2.13.48.97.91,2.14.85,3.03.26.25.51.75.69.46-.04-.18-.12-.36-.19-.54.15-.3.36-.08.54.14.17.22.28.43.33.04.21.37.47.77.65,1.23.14.47.27,1.01.11,1.59l-.62.19c.18-.01.4-.74.18-1.05.16.23-.04.68-.22,1.1-.15.43-.27.84.08,1.15.18-.24.36-.49.51-.76.26.84.71,2.05.22,3.07.71-.33,0-.25.87-.87-.52.24-.31-.45-.24-1.1.12-.66.13-1.25-.36-.75.86-.74.44-1.34,1.06-2.46-.21.05-.34.41-.34-.55-.06-.04-.15-.13-.21-.18,0-.03,0-.04,0-.06l-.02.05s-.04-.04,0,.02c-.06.23-.14.42-.24.5-.26-.21-.44-.66-.59-1.11-.16-.45-.35-.89-.51-1.09-.03-.53.28.15.42-.18-.17-.21-.37-.4-.56-.58.41-.19.22-1.63.9-.48-.13-.38-.24-.76-.41-1.12-.04-.75-.45-1.68-.93-2.09-.23-.54-1.24-.87-.66-.69-.43-.46-.93-.86-1.41-1.25l.07-.09c-1.09-1.2-2.75-1.71-3.42-3.53-.44-.28-.91-.56-1.43-1.25l.16-.39c-.56-.37-1.12-1.67-1.6-1.58.24-1.24-2.09-2.42-2.78-3.36l-.39.33c-.54-.58-1.18-1.02-2.02-1.57l-.27.36c-.86-.34-1.32-1.77-2.31-2.69.19-.06.4.22.49.46-.42-1.85-2.92-1.88-3.43-3.43-.37-.14-.52-.37-.62-.63.03.02.05.04.08.05-.02-.03-.06-.07-.1-.11-.06-.17-.11-.35-.19-.53.03.18.07.35.13.47-.2-.19-.54-.45-.92-.67l.21-.47s-.05-.04-.08-.06c-.16-.41-.39-.07-.5.34-.2-.09-.41-.16-.59-.18.31-.78-.96-.59-.69-1.49-.48.09-1.7-1.27-2.45-.82.07-.09.02-.21.18-.06-.26-.4-.52-.79-.98-.92l.29-.57-1.3-.14c-.17-.7-.2-1.03.57-.93-1.56-.53-1.04-.65-2.44-1.03l.32-.24c-.33-.31-1.21-.44-1.17-.86-.18-1.24-3.44-3.59-4.77-5.91-.47,1.18-.48-1.22-1.19-.65.09-.3-.06-.67.41-.54-1.12-.74-1.09-1.71-2.27-1.81.09-.3.48-.09.51-.3-.12-.03-.47-.13-.45-.34.02-.21.3-.03.53.04-.98-.92-1.68-.41-2.31.08-.21-.75-.49-.95-1.21-.93.02-.35-.07-.82.59-.3-.31-.36-1.76-2.3-2.24-1.88.01-.22-.43-.5-.57-.53-.72-.77-.74-.88-1.52-1.57l.13.28c-.82.26-.76-.49-1.5-1.03l.07-.04c-.67-.84-.9-.94-1.12-1-.23-.06-.41-.16-1.2-.92l-.11.48c-.32.42-.63.1-1.07-.34-.44-.4-1.04-.95-1.68-.88l.35.37c-.36.1-.69-.37-1.09-.84-.39-.46-.83-1.03-1.19-1.1-.15-.09.26-.14.49-.16-1.86-.74-.3.6-1.67.68-.26-.33.34-.88-.63-.9-.25-.13-.94.18-1.68.54-.37.16-.75.37-1.13.49-.38.12-.75.19-1.1.15.35.15.67.32.15.71-.44.18-1.11.2-1.76.35-.65.13-1.24.45-1.39,1-.14.01-.21-.02-.26-.07-.23.32-.69.71-1.02,1.17-.33.46-.63.92-.59,1.2-1.59-.75-2.24,3.37-3.31,2.28l-1.34,1.46-.07-.15c-1.08,1-1.07,1.68-1.06,2.28-.28.2-.26-.07-.31-.13-.69.79-1.04,1.28-1.19,1.81-.17.51-.17,1.06-.07,1.98l-.53.03c.1.27-.34.93-.61,1.86-.33.92-.46,2.13-.1,3.15-.06-.02-.16-.05-.23-.21.36,1.14.27,2.57.53,3.82.22,1.25.74,2.26,1.74,2.16.37.37.78.7,1.19,1-.99-1.59.8-.23.6-1.02.25.24.39.69.43.99.05.29-.05.47-.38.16v-.17c-.49.17-.19.67.21,1.16.4.53.8.89.56,1.12,2.44,2.37,4.41,5.08,6.63,7.36l.26-.78.76.81c.09.33-.13.68-.67.1,0,.59,1.19.69,1.31.6.89,1.31-1.03.17-.71.52l.5.42-.04-.16c.58.16.84-.03,1.49.67.32.53-.1.54.05.72-.04.04,0,.11.24.27l.95,1.03v-.8c.65.24.92.95.93.03-.04,1.38,3.43,3.95,3.62,4.58.91.32,1.51.93,2.23,1.71-.1-.27.25-.84.84-.14-1.18.71.77,1.6.62,2.8-.02-.92,1.95,1.73,1.86.35.46.62-.32.39-.14,1.02,1.65.92,2.6,3.07,4.31,4.54.15-.1.07-.56.6-.4l.22,1.46c.37.25,1.01-.43,1.15.58.02-.19.06-.46.31-.29,2.51,3.72,6.86,5.87,8.89,10.17-.19-.67.12-.41.46-.09-.16-.27.31-.3.44-.51l.86,1.79c.71-.23,1.45,1.39,2.04,1.08l-.5-.34c1.09.03.39-1.95,1.15-2.55-1.22-.02-.76-2.54-2.64-2.7-.09-.36.41-.03.45-.3-.55.03-.92-.22-1.38-.93h.14c-1.7-1.57-2.12-2.55-3.76-4.58l-.2.47c-.35-.44-.33-.63-.43-.9-.96.06,1.08,1.14.11,1.28.16-1.2-2.77-2.79-2.35-3.92-.6-.61-.21.57-.81-.05l.05-.37-.42.12c-.35-.44-.29-.9-.13-1.1.08.12.32.22.44.31-.27-.76-1.54-1.37-1.63-1.63l.45.71c-1.85-1.46-3.6-3.75-5.62-4.93l-.04.28c-1.51-.93-.8-1.15-2.28-2.36h.09c-.43-.1-.86-.38-1.21-.76.52.15-.28-1,.37-.76-1.64-1.01-.9-.41-2.36-.7l.06-.46c-.54-.06-.69.04-1.42-.56.77.32-.03-.83.88-.51-.83-1.98-2.66-1.51-2.47-2.99-1.37.08.81,1.62.3,1.41.07.54-1.08.01-1.44-.5-.43-.47.17-1.69-.98-2.81.11.12.17.07.28.18-.24-.61-1.08-.58-1.3-1.4-.73.15-.65-.7-1.29-.22l1.17.91c-.73-.44-1.94-.34-2.59-1.62.19-.04.62.1.9.22-.12-.45-.65-.44-.78-.9.64-.48,1.38,1.14,2.44,1.34-.07-.54-1.6-.78-.67-1.07-1.23.32-1.01-1.21-2.37-1.39l.39-.28c-.17-.07-.58-.16-.8-.39l.84-.03c-.99-.25-.87-1.52-1.66-1.91,1.25,1.23-.13.68.16,1.45-1.98-1.08,0-1.76-1.88-3.31.28.18.67,1.07.15.87-.26-.4-.56-.96-.58-1.33-1.21-1.07-.17.52-.86.24.02-.8-.72-.39-1.35-.76l.34-.34c-1.06-1.51-1.1.34-1.83-1,.31,0,.61,0,.9,0l-.61-.41.52-.24c-.77-.33-.86-.6-1.08-1.31-.19.31-.85.38-1.15-.28.07-.55.51.05.07-.81.35.11.81.13.57.7.16-.03.36.05.51.02.05-.29-.05-.55-.19-.79-.13-.24-.26-.46-.32-.61.02.12.05.27,0,.37l-.54-.52c-.17-.19-.32-.38-.49-.59.12-.25.31-.11.49.02-.12-.25-.39-.39-.47-.8.41.04.78-.03,1.07.45-.23-.36-.42-.74-.61-1.14.17-.1.44-.65.59-.5.08-.33-.05-.71-.23-1.17-.11-.44-.23-.97.05-1.37-.06-.06-.11-.17-.12-.38.37-.82,1.03-1.28,1.11-2.39.28-.05.61-.05.9-.06.15-.34-.13-.34-.39-.37-.26-.04-.51-.12-.2-.76.5-.88.7.13,1.06.02-.01-.27.12-.77.34-1.21.23-.44.58-.85,1.17-1.04-.16.35-.44.48-.65.76Zm8.79-6.25c-.19.13-.52.49-.71.23.12-.58.36-.34.71-.23Zm14.77,7.79c-.24-.02-.38-.27-.48-.62.19.13.36.33.48.62Zm39.99,36.19s-.02-.01-.03-.02c-.16-.65-.1-.42.03.02Zm.37,1.3c.11.1.17.07.21-.01-.14-.05-.28-.31-.39-.64-.08.14-.08.33.18.65Zm-57.53-10.95l-.07-.24c.45.25.26.24.07.24Z"/>
        <path class="cls-5" d="m199.45,249.58c0-.11.06-.18.11-.26-.12-.01-.19.05-.11.26Z"/>
        <path class="cls-5" d="m174.68,254.52v.03s.04.04.07.05l-.07-.08Z"/>
        <path class="cls-5" d="m226.86,277.38c-.11-.21-.14-.37-.14-.49-.09.07-.09.22.14.49Z"/>
        <path class="cls-5" d="m243.55,295.12c.01-.3-.04-.6-.06-.9,0,.43-.1.58-.21.78.11,0,.3-.16.27.12Z"/>
        <path class="cls-5" d="m238.33,300.54c-.01.12-.13.18-.14.3l.19.11c.26-.38.3-.74-.05-.42Z"/>
        <path class="cls-5" d="m241.85,295.68c-.4,0-.36.5-.42,1.06,0-.03.01-.06.02-.1.5.3.5-.34.4-.96Z"/>
        <path class="cls-5" d="m241.41,296.86c-.02.17-.05.35-.13.5.2.13.12-.18.13-.5Z"/>
        <path class="cls-5" d="m242.6,289.67c-.03.3.55.05.43.25.29.1.02-.35-.24-.61-.29-.26-.52-.36-.19.36Z"/>
        <path class="cls-5" d="m240.47,295.86l.53-.08-.36-.36c-.06.15-.1.3-.17.44Z"/>
        <path class="cls-5" d="m240.97,291.84c0,.28-.02.56-.06.84.08-.02.14.08.18.21.01-.51.03-1.09-.12-1.05Z"/>
        <path class="cls-5" d="m241.09,292.89c0,.27.04.52.1.67.01-.15-.04-.46-.1-.67Z"/>
        <path class="cls-5" d="m240.48,294.75c.04-.07.1-.15.13-.22l.06-.57c-.07.27-.1.53-.2.79Z"/>
        <path class="cls-5" d="m236.95,284.03l-.73-.52c-.18.06-.09.3.19.49.23.06.51.25.53.04Z"/>
        <path class="cls-5" d="m237.66,286.89c-.05-.24.03-.32.09-.53l-.5.36.42.16Z"/>
        <path class="cls-5" d="m235.95,285.17c-.18.06-1.26-.56-.44.21.18-.06.91.47.44-.21Z"/>
        <polygon class="cls-5" points="227.1 275.21 227.26 275.37 227.96 274.62 227.1 275.21"/>
        <path class="cls-5" d="m217.09,268.65c.57.91.62-.27,1.07.61.34,0-.37-.72-.05-.69-.63-.27-.76-.6-1.03.08Z"/>
        <path class="cls-5" d="m218.11,268.57c.1.04.21.08.34.12-.17-.08-.27-.11-.34-.12Z"/>
        <polygon class="cls-5" points="212.96 306.59 213.28 307.21 213.22 306.66 212.96 306.59"/>
        <path class="cls-5" d="m214.4,306.97l-.35.57.7-.13c-.13-.09-.38-.26-.35-.44Z"/>
        <path class="cls-5" d="m188.16,244.1l.04-.15c-.07-.17-.19-.2-.42-.22.13.11.26.25.38.38Z"/>
        <polygon class="cls-5" points="181.9 245.86 182 245.79 181.44 245.5 181.9 245.86"/>
        <path class="cls-5" d="m177.36,251.47c.17-.14.22-.41.41-.58-.25.44-1,.14-.41.58Z"/>
      </g>
    </g>
    <ellipse class="cls-3" cx="251.39" cy="265.06" rx="122.5" ry="111.5"/>
  </g>
</svg>